<?xml version="1.0" encoding="UTF-8" standalone="no"?><!DOCTYPE svg PUBLIC "-//W3C//DTD SVG 1.1//EN" "http://www.w3.org/Graphics/SVG/1.1/DTD/svg11.dtd"><svg width="100%" height="100%" viewBox="0 0 105 22" version="1.1" xmlns="http://www.w3.org/2000/svg" xmlns:xlink="http://www.w3.org/1999/xlink" xml:space="preserve" style="fill-rule:evenodd;clip-rule:evenodd;stroke-linejoin:round;stroke-miterlimit:1.41421;"><g><path d="M93.632,1.111c-5.722,-0.009 -10.37,4.624 -10.379,10.348c-0.007,4.578 2.956,8.467 7.072,9.844c0.518,0.096 0.708,-0.223 0.708,-0.498c0.001,-0.247 -0.007,-0.898 -0.011,-1.763c-2.884,0.622 -3.489,-1.395 -3.489,-1.395c-0.469,-1.198 -1.148,-1.518 -1.148,-1.518c-0.94,-0.644 0.072,-0.629 0.072,-0.629c1.04,0.075 1.586,1.07 1.586,1.07c0.922,1.585 2.424,1.13 3.015,0.866c0.095,-0.669 0.363,-1.125 0.66,-1.384c-2.301,-0.265 -4.719,-1.158 -4.713,-5.129c0.002,-1.132 0.407,-2.057 1.071,-2.78c-0.106,-0.262 -0.46,-1.317 0.107,-2.742c0,0 0.87,-0.277 2.847,1.067c0.827,-0.229 1.714,-0.342 2.595,-0.345c0.881,0.006 1.767,0.121 2.594,0.353c1.981,-1.338 2.849,-1.058 2.849,-1.058c0.563,1.427 0.206,2.481 0.099,2.743c0.663,0.725 1.063,1.651 1.061,2.782c-0.006,3.982 -2.431,4.854 -4.74,5.107c0.371,0.32 0.702,0.953 0.7,1.92c-0.002,1.385 -0.016,2.503 -0.017,2.843c0,0.277 0.186,0.6 0.712,0.5c4.117,-1.367 7.09,-5.244 7.097,-9.822c0.009,-5.723 -4.624,-10.371 -10.348,-10.38l0,0Z"/><path d="M17.149,9.734l-6.284,0c-0.162,0 -0.293,0.131 -0.293,0.294l0,3.071c0,0.162 0.131,0.294 0.293,0.294l2.452,0l0,3.817c0,0 -0.551,0.188 -2.072,0.188c-1.796,0 -4.303,-0.656 -4.303,-6.171c0,-5.515 2.611,-6.241 5.063,-6.241c2.122,0 3.036,0.374 3.618,0.554c0.182,0.056 0.352,-0.126 0.352,-0.288l0.7,-2.968c0,-0.076 -0.025,-0.168 -0.112,-0.23c-0.236,-0.168 -1.677,-0.975 -5.318,-0.975c-4.195,0 -8.497,1.785 -8.497,10.363c0,8.579 4.926,9.858 9.077,9.858c3.437,0 5.522,-1.469 5.522,-1.469c0.086,-0.048 0.095,-0.168 0.095,-0.223l0,-9.58c0,-0.163 -0.131,-0.294 -0.293,-0.294Z" style="fill:#1a1613;fill-rule:nonzero;"/><path d="M49.529,2.107c0,-0.163 -0.129,-0.295 -0.291,-0.295l-3.538,0c-0.162,0 -0.293,0.132 -0.293,0.295c0,0.001 0.001,6.837 0.001,6.837l-5.515,0l0,-6.837c0,-0.163 -0.13,-0.295 -0.291,-0.295l-3.538,0c-0.161,0 -0.292,0.132 -0.292,0.295l0,18.512c0,0.164 0.131,0.297 0.292,0.297l3.538,0c0.161,0 0.291,-0.133 0.291,-0.297l0,-7.918l5.515,0c0,0 -0.01,7.918 -0.01,7.918c0,0.164 0.132,0.297 0.293,0.297l3.547,0c0.162,0 0.291,-0.133 0.291,-0.297l0,-18.512Z" style="fill:#1a1613;fill-rule:nonzero;"/><path d="M23.825,4.536c0,-1.274 -1.022,-2.303 -2.282,-2.303c-1.258,0 -2.281,1.029 -2.281,2.303c0,1.273 1.023,2.305 2.281,2.305c1.26,0 2.282,-1.032 2.282,-2.305Z" style="fill:#1a1613;fill-rule:nonzero;"/><path d="M23.572,16.714c0,-0.474 0,-8.545 0,-8.545c0,-0.162 -0.131,-0.295 -0.293,-0.295l-3.527,0c-0.161,0 -0.306,0.167 -0.306,0.329c0,0 0,10.283 0,12.243c0,0.36 0.224,0.467 0.514,0.467c0,0 1.505,0 3.178,0c0.348,0 0.434,-0.171 0.434,-0.473c0,-0.656 0,-3.227 0,-3.726Z" style="fill:#1a1613;fill-rule:nonzero;"/><path d="M62.975,7.902l-3.511,0c-0.161,0 -0.292,0.133 -0.292,0.296l0,9.077c0,0 -0.892,0.653 -2.158,0.653c-1.266,0 -1.602,-0.575 -1.602,-1.814c0,-1.241 0,-7.916 0,-7.916c0,-0.163 -0.13,-0.296 -0.292,-0.296l-3.563,0c-0.161,0 -0.292,0.133 -0.292,0.296c0,0 0,4.834 0,8.515c0,3.682 2.052,4.582 4.874,4.582c2.316,0 4.183,-1.279 4.183,-1.279c0,0 0.089,0.674 0.129,0.754c0.04,0.08 0.145,0.16 0.258,0.16l2.267,-0.01c0.161,0 0.293,-0.132 0.293,-0.295l-0.001,-12.427c0,-0.163 -0.132,-0.296 -0.293,-0.296Z" style="fill:#1a1613;fill-rule:nonzero;"/><path d="M71.185,17.916c-1.218,-0.037 -2.044,-0.589 -2.044,-0.589l0,-5.863c0,0 0.815,-0.499 1.815,-0.588c1.264,-0.114 2.482,0.268 2.482,3.284c0,3.18 -0.549,3.808 -2.253,3.756Zm1.385,-10.43c-1.994,0 -3.35,0.89 -3.35,0.89l0,-6.269c0,-0.163 -0.131,-0.295 -0.292,-0.295l-3.548,0c-0.161,0 -0.292,0.132 -0.292,0.295l0,18.512c0,0.164 0.131,0.297 0.292,0.297c0.001,0 2.461,0 2.462,0c0.111,0 0.195,-0.058 0.257,-0.158c0.061,-0.099 0.149,-0.853 0.149,-0.853c0,0 1.451,1.375 4.197,1.375c3.224,0 5.073,-1.636 5.073,-7.342c0,-5.706 -2.953,-6.452 -4.948,-6.452Z" style="fill:#1a1613;fill-rule:nonzero;"/><path d="M33.74,7.872l-2.654,0c0,0 -0.004,-3.505 -0.004,-3.505c0,-0.133 -0.069,-0.2 -0.222,-0.2l-3.616,0c-0.141,0 -0.217,0.062 -0.217,0.198l0,3.622c0,0 -1.812,0.438 -1.934,0.473c-0.122,0.036 -0.212,0.148 -0.212,0.282l0,2.277c0,0.164 0.131,0.296 0.292,0.296l1.854,0c0,0 0,2.381 0,5.477c0,4.068 2.854,4.468 4.78,4.468c0.879,0 1.932,-0.283 2.106,-0.347c0.105,-0.039 0.166,-0.148 0.166,-0.266l0.003,-2.504c0,-0.163 -0.138,-0.296 -0.294,-0.296c-0.154,0 -0.55,0.063 -0.957,0.063c-1.304,0 -1.745,-0.606 -1.745,-1.39c0,-0.784 0,-5.205 0,-5.205l2.654,0c0.161,0 0.292,-0.132 0.292,-0.296l0,-2.852c0,-0.163 -0.131,-0.295 -0.292,-0.295Z" style="fill:#1a1613;fill-rule:nonzero;"/></g></svg>