<?xml version="1.0" encoding="UTF-8" standalone="no"?><!DOCTYPE svg PUBLIC "-//W3C//DTD SVG 1.1//EN" "http://www.w3.org/Graphics/SVG/1.1/DTD/svg11.dtd"><svg width="100%" height="100%" viewBox="0 0 140 140" version="1.1" xmlns="http://www.w3.org/2000/svg" xmlns:xlink="http://www.w3.org/1999/xlink" xml:space="preserve" style="fill-rule:evenodd;clip-rule:evenodd;stroke-linejoin:round;stroke-miterlimit:1.41421;"><g></g><g><g opacity="0.2"><g><path d="M58.694,7.354c34.355,-6.426 67.463,16.25 73.888,50.605c6.425,34.355 -16.25,67.463 -50.605,73.888c-34.355,6.425 -67.463,-16.25 -73.888,-50.605c-6.426,-34.355 16.25,-67.463 50.605,-73.888Z" style="fill:#c5c5c5;"/><clipPath id="_clip1"><path d="M58.65,7.122c34.483,-6.449 67.715,16.311 74.164,50.793c6.449,34.483 -16.311,67.715 -50.794,74.164c-34.482,6.449 -67.714,-16.311 -74.163,-50.794c-6.449,-34.483 16.311,-67.714 50.793,-74.163Z"/></clipPath><g clip-path="url(#_clip1)"><path d="M82.543,-19.133c34.355,-6.425 67.463,16.25 73.888,50.605c6.426,34.355 -16.25,67.463 -50.605,73.889c-34.355,6.425 -67.463,-16.251 -73.888,-50.606c-6.425,-34.354 16.25,-67.463 50.605,-73.888Z" style="fill:#eff0f0;"/><path d="M94.529,-20.221l0.394,0.003l0.395,0.006l0.394,0.008l0.394,0.01l0.393,0.013l0.393,0.015l0.392,0.018l0.392,0.02l0.392,0.023l0.391,0.025l0.39,0.028l0.39,0.03l0.39,0.032l0.389,0.035l0.388,0.037l0.388,0.039l0.388,0.042l0.386,0.044l0.387,0.047l0.386,0.049l0.385,0.051l0.385,0.054l0.384,0.056l0.383,0.058l0.383,0.061l0.382,0.063l0.382,0.065l0.381,0.068l0.38,0.07l0.38,0.072l0.379,0.074l0.378,0.077l0.378,0.079l0.377,0.081l0.376,0.084l0.376,0.086l0.375,0.088l0.374,0.09l0.373,0.093l0.373,0.095l0.372,0.097l0.371,0.099l0.371,0.101l0.369,0.104l0.369,0.106l0.368,0.108l0.367,0.11l0.367,0.113l0.365,0.115l0.365,0.116l0.364,0.119l0.363,0.122l0.362,0.123l0.362,0.125l0.36,0.128l0.36,0.13l0.359,0.131l0.357,0.134l0.357,0.137l0.356,0.138l0.355,0.14l0.354,0.142l0.353,0.145l0.353,0.147l0.351,0.148l0.35,0.151l0.349,0.153l0.348,0.155l0.348,0.156l0.346,0.159l0.345,0.161l0.344,0.163l0.343,0.165l0.342,0.168l0.341,0.169l0.34,0.171l0.339,0.173l0.338,0.175l0.337,0.177l0.335,0.179l0.335,0.181l0.333,0.183l0.332,0.185l0.331,0.187l0.33,0.189l0.329,0.191l0.327,0.193l0.327,0.195l0.325,0.196l0.324,0.199l0.323,0.2l0.321,0.203l0.321,0.204l0.319,0.206l0.318,0.208l0.316,0.211l0.316,0.211l0.314,0.214l0.313,0.216l0.311,0.217l0.31,0.22l0.309,0.221l0.308,0.223l0.306,0.225l0.305,0.226l0.304,0.229l0.302,0.23l0.301,0.232l0.3,0.234l0.298,0.236l0.297,0.238l0.295,0.239l0.294,0.241l0.292,0.243l0.292,0.244l0.289,0.247l0.289,0.248l0.286,0.25l0.286,0.252l0.284,0.253l0.282,0.255l0.281,0.257l0.279,0.259l0.278,0.26l0.277,0.262l0.274,0.263l0.274,0.266l0.272,0.267l0.27,0.269l0.268,0.27l0.268,0.272l0.265,0.274l0.264,0.275l0.262,0.277l0.261,0.279l0.259,0.28l0.258,0.282l0.256,0.284l0.254,0.285l0.252,0.287l0.251,0.288l0.25,0.29l0.247,0.292l0.246,0.293l0.244,0.295l0.243,0.296l0.24,0.298l0.239,0.299l0.238,0.301l0.235,0.303l0.234,0.304l0.232,0.306l0.23,0.307l0.229,0.308l0.227,0.311l0.225,0.311l0.223,0.314l0.221,0.314l0.219,0.317l0.218,0.317l0.216,0.32l0.214,0.32l0.212,0.322l0.21,0.324l0.208,0.325l0.207,0.326l0.204,0.328l0.203,0.33l0.201,0.331l0.199,0.332l0.196,0.333l0.195,0.336l0.193,0.336l0.191,0.338l0.189,0.339l0.187,0.341l0.186,0.342l0.183,0.343l0.181,0.345l0.179,0.346l0.177,0.348l0.175,0.349l0.173,0.35l0.171,0.351l0.168,0.353l0.167,0.354l0.165,0.356l0.163,0.357l0.16,0.358l0.158,0.359l0.157,0.361l0.154,0.362l0.152,0.363l0.15,0.365l0.148,0.365l0.145,0.368l0.144,0.368l0.141,0.369l0.139,0.371l0.137,0.372l0.134,0.374l0.133,0.374l0.13,0.376l0.128,0.377l0.126,0.378l0.123,0.379l0.121,0.381l0.119,0.382l0.117,0.383l0.114,0.384l0.112,0.385l0.11,0.387l0.107,0.387l0.106,0.389l0.102,0.39l0.101,0.391l0.098,0.392l0.096,0.393l0.093,0.395l0.091,0.395l0.089,0.397l0.086,0.397l0.084,0.399l0.081,0.4l0.079,0.401l0.076,0.402l0.074,0.403l0.072,0.402l0.068,0.402l0.066,0.403l0.064,0.402l0.06,0.401l0.058,0.402l0.056,0.402l0.053,0.401l0.05,0.401l0.048,0.401l0.045,0.401l0.042,0.4l0.04,0.4l0.038,0.4l0.034,0.4l0.032,0.399l0.03,0.4l0.027,0.399l0.025,0.398l0.022,0.399l0.019,0.398l0.017,0.397l0.014,0.398l0.012,0.397l0.01,0.397l0.007,0.396l0.004,0.396l0.002,0.396l-0.001,0.395l-0.003,0.395l-0.005,0.394l-0.008,0.394l-0.011,0.394l-0.013,0.393l-0.015,0.393l-0.018,0.392l-0.02,0.392l-0.023,0.392l-0.025,0.391l-0.027,0.39l-0.03,0.39l-0.032,0.39l-0.035,0.389l-0.037,0.388l-0.04,0.388l-0.042,0.388l-0.044,0.387l-0.046,0.386l-0.049,0.386l-0.052,0.385l-0.053,0.385l-0.056,0.384l-0.059,0.383l-0.06,0.383l-0.063,0.382l-0.066,0.382l-0.067,0.381l-0.07,0.38l-0.072,0.38l-0.075,0.379l-0.077,0.379l-0.079,0.377l-0.081,0.377l-0.084,0.377l-0.085,0.375l-0.088,0.375l-0.091,0.374l-0.092,0.374l-0.095,0.372l-0.097,0.372l-0.1,0.371l-0.101,0.371l-0.104,0.37l-0.106,0.368l-0.108,0.368l-0.11,0.368l-0.112,0.366l-0.115,0.366l-0.117,0.364l-0.119,0.364l-0.121,0.364l-0.123,0.362l-0.126,0.361l-0.127,0.361l-0.13,0.359l-0.132,0.359l-0.134,0.358l-0.136,0.356l-0.138,0.356l-0.141,0.355l-0.142,0.355l-0.144,0.353l-0.147,0.352l-0.149,0.351l-0.15,0.35l-0.153,0.349l-0.155,0.349l-0.157,0.347l-0.159,0.346l-0.161,0.345l-0.163,0.344l-0.165,0.344l-0.167,0.342l-0.169,0.341l-0.171,0.34l-0.173,0.338l-0.176,0.338l-0.177,0.337l-0.179,0.335l-0.181,0.335l-0.183,0.333l-0.185,0.332l-0.187,0.331l-0.189,0.33l-0.191,0.329l-0.192,0.328l-0.195,0.326l-0.197,0.325l-0.198,0.324l-0.201,0.323l-0.202,0.322l-0.205,0.32l-0.206,0.319l-0.208,0.318l-0.21,0.317l-0.212,0.315l-0.214,0.314l-0.215,0.313l-0.218,0.311l-0.219,0.311l-0.221,0.309l-0.223,0.307l-0.225,0.307l-0.227,0.304l-0.228,0.304l-0.231,0.302l-0.232,0.301l-0.234,0.3l-0.236,0.298l-0.237,0.297l-0.239,0.295l-0.242,0.294l-0.242,0.293l-0.245,0.291l-0.246,0.29l-0.249,0.288l-0.25,0.287l-0.251,0.285l-0.254,0.284l-0.255,0.282l-0.257,0.281l-0.258,0.28l-0.26,0.277l-0.262,0.277l-0.264,0.275l-0.265,0.273l-0.267,0.272l-0.269,0.27l-0.27,0.269l-0.273,0.267l-0.273,0.265l-0.276,0.264l-0.277,0.263l-0.278,0.26l-0.281,0.26l-0.282,0.257l-0.283,0.256l-0.285,0.254l-0.287,0.253l-0.289,0.251l-0.29,0.249l-0.291,0.247l-0.293,0.246l-0.295,0.244l-0.296,0.243l-0.298,0.241l-0.3,0.239l-0.301,0.237l-0.302,0.236l-0.304,0.233l-0.306,0.232l-0.307,0.231l-0.309,0.228l-0.31,0.227l-0.312,0.225l-0.313,0.223l-0.315,0.221l-0.316,0.22l-0.318,0.217l-0.319,0.216l-0.321,0.214l-0.322,0.212l-0.323,0.21l-0.326,0.209l-0.326,0.206l-0.328,0.205l-0.329,0.202l-0.331,0.201l-0.332,0.199l-0.334,0.197l-0.335,0.195l-0.337,0.193l-0.337,0.191l-0.34,0.189l-0.34,0.187l-0.342,0.185l-0.344,0.183l-0.345,0.181l-0.346,0.179l-0.347,0.177l-0.349,0.175l-0.35,0.173l-0.352,0.171l-0.353,0.169l-0.354,0.167l-0.355,0.164l-0.357,0.163l-0.358,0.16l-0.36,0.159l-0.36,0.156l-0.362,0.154l-0.364,0.152l-0.364,0.15l-0.366,0.148l-0.367,0.145l-0.368,0.144l-0.37,0.141l-0.371,0.139l-0.372,0.137l-0.373,0.135l-0.375,0.132l-0.376,0.13l-0.376,0.128l-0.379,0.126l-0.379,0.123l-0.381,0.121l-0.381,0.119l-0.383,0.117l-0.384,0.114l-0.386,0.112l-0.386,0.11l-0.388,0.108l-0.388,0.105l-0.39,0.103l-0.391,0.1l-0.392,0.098l-0.394,0.096l-0.394,0.093l-0.396,0.091l-0.396,0.089l-0.398,0.086l-0.399,0.084l-0.4,0.081l-0.401,0.079l-0.402,0.077l-0.402,0.074l-0.403,0.071l-0.402,0.069l-0.402,0.066l-0.402,0.063l-0.402,0.061l-0.402,0.058l-0.401,0.055l-0.401,0.053l-0.402,0.05l-0.4,0.048l-0.401,0.045l-0.401,0.043l-0.4,0.039l-0.4,0.038l-0.4,0.035l-0.399,0.032l-0.399,0.029l-0.399,0.027l-0.399,0.025l-0.398,0.022l-0.398,0.019l-0.398,0.017l-0.397,0.015l-0.397,0.012l-0.397,0.009l-0.396,0.007l-0.396,0.004l-0.396,0.002l-0.395,0l-0.395,-0.003l-0.395,-0.006l-0.394,-0.008l-0.394,-0.01l-0.393,-0.013l-0.393,-0.016l-0.392,-0.018l-0.392,-0.02l-0.391,-0.022l-0.391,-0.026l-0.391,-0.027l-0.39,-0.03l-0.389,-0.032l-0.389,-0.035l-0.389,-0.037l-0.388,-0.04l-0.387,-0.041l-0.387,-0.045l-0.387,-0.046l-0.385,-0.049l-0.386,-0.051l-0.384,-0.054l-0.384,-0.056l-0.384,-0.058l-0.383,-0.061l-0.382,-0.063l-0.382,-0.065l-0.381,-0.068l-0.38,-0.07l-0.38,-0.072l-0.379,-0.075l-0.378,-0.076l-0.378,-0.079l-0.377,-0.082l-0.376,-0.083l-0.376,-0.086l-0.375,-0.088l-0.374,-0.091l-0.373,-0.092l-0.373,-0.095l-0.372,-0.097l-0.371,-0.099l-0.37,-0.102l-0.37,-0.103l-0.369,-0.106l-0.368,-0.108l-0.367,-0.111l-0.367,-0.112l-0.365,-0.115l-0.365,-0.117l-0.364,-0.119l-0.363,-0.121l-0.362,-0.123l-0.362,-0.126l-0.36,-0.127l-0.36,-0.13l-0.358,-0.132l-0.358,-0.134l-0.357,-0.136l-0.356,-0.138l-0.355,-0.14l-0.354,-0.143l-0.353,-0.144l-0.352,-0.147l-0.352,-0.148l-0.35,-0.151l-0.349,-0.153l-0.348,-0.155l-0.347,-0.157l-0.347,-0.159l-0.345,-0.161l-0.344,-0.163l-0.343,-0.165l-0.342,-0.167l-0.341,-0.169l-0.34,-0.171l-0.339,-0.173l-0.338,-0.175l-0.336,-0.177l-0.336,-0.179l-0.334,-0.182l-0.334,-0.183l-0.332,-0.185l-0.331,-0.187l-0.33,-0.188l-0.329,-0.191l-0.327,-0.193l-0.327,-0.195l-0.325,-0.197l-0.324,-0.198l-0.323,-0.201l-0.321,-0.202l-0.321,-0.204l-0.319,-0.207l-0.318,-0.208l-0.316,-0.21l-0.316,-0.212l-0.314,-0.213l-0.312,-0.216l-0.312,-0.218l-0.31,-0.219l-0.309,-0.221l-0.308,-0.223l-0.306,-0.225l-0.305,-0.227l-0.304,-0.228l-0.302,-0.23l-0.301,-0.233l-0.299,-0.234l-0.299,-0.235l-0.296,-0.238l-0.296,-0.239l-0.294,-0.241l-0.292,-0.243l-0.291,-0.245l-0.29,-0.246l-0.288,-0.248l-0.287,-0.25l-0.285,-0.252l-0.284,-0.253l-0.283,-0.255l-0.281,-0.257l-0.279,-0.259l-0.278,-0.26l-0.276,-0.262l-0.275,-0.264l-0.274,-0.265l-0.271,-0.267l-0.271,-0.269l-0.268,-0.27l-0.267,-0.272l-0.266,-0.274l-0.264,-0.275l-0.262,-0.277l-0.261,-0.279l-0.259,-0.28l-0.258,-0.282l-0.255,-0.284l-0.255,-0.285l-0.252,-0.287l-0.251,-0.288l-0.249,-0.29l-0.248,-0.292l-0.246,-0.293l-0.244,-0.295l-0.242,-0.296l-0.241,-0.298l-0.239,-0.3l-0.238,-0.301l-0.235,-0.302l-0.234,-0.304l-0.232,-0.306l-0.23,-0.307l-0.229,-0.309l-0.226,-0.31l-0.225,-0.312l-0.224,-0.313l-0.221,-0.315l-0.219,-0.316l-0.218,-0.318l-0.216,-0.319l-0.214,-0.32l-0.212,-0.323l-0.21,-0.323l-0.208,-0.325l-0.207,-0.327l-0.204,-0.328l-0.203,-0.329l-0.201,-0.331l-0.198,-0.332l-0.197,-0.334l-0.195,-0.335l-0.193,-0.336l-0.191,-0.338l-0.189,-0.339l-0.187,-0.341l-0.185,-0.342l-0.183,-0.344l-0.182,-0.344l-0.179,-0.346l-0.177,-0.348l-0.175,-0.349l-0.173,-0.35l-0.17,-0.352l-0.169,-0.352l-0.167,-0.355l-0.165,-0.355l-0.162,-0.357l-0.161,-0.358l-0.158,-0.359l-0.157,-0.361l-0.154,-0.362l-0.152,-0.363l-0.15,-0.365l-0.147,-0.366l-0.146,-0.367l-0.143,-0.368l-0.142,-0.37l-0.139,-0.371l-0.136,-0.372l-0.135,-0.373l-0.132,-0.375l-0.131,-0.375l-0.128,-0.377l-0.125,-0.378l-0.124,-0.38l-0.121,-0.38l-0.119,-0.382l-0.117,-0.383l-0.114,-0.384l-0.112,-0.385l-0.11,-0.387l-0.107,-0.387l-0.105,-0.389l-0.103,-0.39l-0.101,-0.391l-0.098,-0.392l-0.095,-0.394l-0.094,-0.394l-0.091,-0.395l-0.088,-0.397l-0.087,-0.398l-0.083,-0.399l-0.082,-0.399l-0.079,-0.401l-0.076,-0.403l-0.074,-0.402l-0.071,-0.402l-0.069,-0.403l-0.066,-0.402l-0.063,-0.402l-0.061,-0.402l-0.058,-0.401l-0.056,-0.402l-0.053,-0.401l-0.05,-0.401l-0.048,-0.401l-0.045,-0.401l-0.042,-0.4l-0.04,-0.401l-0.037,-0.4l-0.035,-0.399l-0.032,-0.4l-0.03,-0.399l-0.027,-0.399l-0.025,-0.399l-0.022,-0.398l-0.019,-0.398l-0.017,-0.398l-0.014,-0.397l-0.012,-0.397l-0.01,-0.397l-0.006,-0.396l-0.005,-0.396l-0.002,-0.396l0.001,-0.395l0.003,-0.395l0.005,-0.395l0.008,-0.394l0.011,-0.393l0.013,-0.394l0.015,-0.392l0.018,-0.393l0.02,-0.392l0.023,-0.391l0.025,-0.391l0.027,-0.391l0.03,-0.39l0.033,-0.389l0.034,-0.389l0.037,-0.389l0.04,-0.388l0.042,-0.387l0.044,-0.387l0.047,-0.386l0.049,-0.386l0.051,-0.385l0.054,-0.385l0.056,-0.384l0.058,-0.384l0.061,-0.382l0.062,-0.383l0.066,-0.381l0.067,-0.381l0.07,-0.381l0.072,-0.379l0.075,-0.379l0.077,-0.379l0.079,-0.378l0.081,-0.377l0.084,-0.376l0.086,-0.375l0.088,-0.375l0.09,-0.375l0.093,-0.373l0.094,-0.373l0.097,-0.372l0.1,-0.371l0.101,-0.37l0.104,-0.37l0.106,-0.369l0.108,-0.368l0.11,-0.367l0.113,-0.366l0.114,-0.366l0.117,-0.365l0.119,-0.364l0.121,-0.363l0.124,-0.362l0.125,-0.361l0.128,-0.361l0.129,-0.359l0.132,-0.359l0.134,-0.358l0.136,-0.357l0.138,-0.356l0.141,-0.355l0.142,-0.354l0.145,-0.353l0.146,-0.352l0.149,-0.351l0.151,-0.351l0.152,-0.349l0.155,-0.348l0.157,-0.347l0.159,-0.346l0.161,-0.346l0.163,-0.344l0.165,-0.343l0.167,-0.342l0.169,-0.341l0.172,-0.34l0.173,-0.339l0.175,-0.337l0.177,-0.337l0.179,-0.336l0.181,-0.334l0.183,-0.333l0.185,-0.333l0.187,-0.331l0.189,-0.33l0.191,-0.328l0.193,-0.328l0.194,-0.326l0.197,-0.325l0.199,-0.324l0.2,-0.323l0.203,-0.322l0.204,-0.32l0.206,-0.319l0.208,-0.318l0.21,-0.317l0.212,-0.315l0.214,-0.314l0.215,-0.313l0.218,-0.312l0.219,-0.31l0.221,-0.309l0.224,-0.308l0.224,-0.306l0.227,-0.305l0.229,-0.303l0.23,-0.303l0.232,-0.301l0.234,-0.299l0.236,-0.298l0.237,-0.297l0.24,-0.295l0.241,-0.294l0.243,-0.293l0.244,-0.291l0.247,-0.29l0.248,-0.288l0.25,-0.287l0.251,-0.285l0.254,-0.284l0.255,-0.282l0.257,-0.281l0.258,-0.28l0.261,-0.278l0.261,-0.276l0.264,-0.275l0.266,-0.273l0.267,-0.272l0.268,-0.27l0.271,-0.269l0.272,-0.267l0.273,-0.266l0.276,-0.264l0.277,-0.262l0.279,-0.261l0.28,-0.259l0.282,-0.257l0.283,-0.256l0.286,-0.254l0.286,-0.253l0.289,-0.251l0.29,-0.249l0.291,-0.248l0.294,-0.246l0.294,-0.244l0.297,-0.242l0.298,-0.241l0.299,-0.239l0.301,-0.237l0.303,-0.236l0.304,-0.234l0.305,-0.232l0.307,-0.23l0.309,-0.229l0.31,-0.226l0.312,-0.225l0.313,-0.223l0.315,-0.222l0.316,-0.219l0.318,-0.218l0.319,-0.215l0.321,-0.214l0.322,-0.212l0.324,-0.211l0.325,-0.208l0.326,-0.206l0.328,-0.205l0.33,-0.203l0.33,-0.2l0.333,-0.199l0.333,-0.197l0.335,-0.195l0.337,-0.193l0.338,-0.191l0.339,-0.189l0.341,-0.187l0.342,-0.185l0.343,-0.183l0.345,-0.181l0.346,-0.179l0.347,-0.177l0.349,-0.175l0.35,-0.173l0.352,-0.171l0.353,-0.169l0.354,-0.167l0.355,-0.164l0.357,-0.163l0.358,-0.161l0.36,-0.158l0.361,-0.156l0.362,-0.154l0.363,-0.152l0.364,-0.15l0.366,-0.148l0.367,-0.146l0.369,-0.143l0.369,-0.141l0.371,-0.139l0.372,-0.137l0.373,-0.135l0.375,-0.132l0.376,-0.13l0.377,-0.128l0.378,-0.126l0.379,-0.124l0.381,-0.121l0.382,-0.119l0.382,-0.116l0.385,-0.115l0.385,-0.112l0.386,-0.11l0.388,-0.107l0.389,-0.105l0.389,-0.103l0.392,-0.1l0.392,-0.098l0.393,-0.096l0.394,-0.093l0.396,-0.091l0.396,-0.089l0.398,-0.086l0.399,-0.084l0.4,-0.081l0.401,-0.079l0.402,-0.077l0.403,-0.074l0.402,-0.071l0.402,-0.069l0.402,-0.066l0.402,-0.063l0.402,-0.061l0.402,-0.058l0.401,-0.056l0.402,-0.052l0.401,-0.051l0.401,-0.047l0.4,-0.045l0.401,-0.043l0.4,-0.04l0.4,-0.037l0.4,-0.035l0.399,-0.032l0.399,-0.03l0.399,-0.027l0.399,-0.024l0.398,-0.022l0.398,-0.02l0.398,-0.017l0.397,-0.014l0.398,-0.012l0.396,-0.009l0.397,-0.007l0.396,-0.005l0.395,-0.001l0.396,0Zm-0.782,1.223l-0.388,0.004l-0.389,0.007l-0.389,0.009l-0.389,0.012l-0.39,0.014l-0.39,0.016l-0.39,0.02l-0.391,0.021l-0.391,0.024l-0.391,0.027l-0.391,0.029l-0.392,0.031l-0.392,0.034l-0.393,0.037l-0.392,0.039l-0.393,0.042l-0.393,0.044l-0.393,0.047l-0.393,0.049l-0.394,0.052l-0.394,0.054l-0.394,0.057l-0.394,0.06l-0.395,0.062l-0.394,0.065l-0.395,0.067l-0.394,0.07l-0.396,0.073l-0.394,0.075l-0.393,0.077l-0.393,0.08l-0.391,0.082l-0.39,0.085l-0.389,0.087l-0.388,0.089l-0.387,0.092l-0.386,0.093l-0.384,0.097l-0.384,0.098l-0.382,0.101l-0.382,0.103l-0.38,0.105l-0.379,0.108l-0.378,0.11l-0.376,0.112l-0.376,0.115l-0.374,0.116l-0.374,0.119l-0.372,0.121l-0.37,0.123l-0.37,0.126l-0.369,0.128l-0.367,0.129l-0.366,0.132l-0.365,0.135l-0.363,0.136l-0.363,0.139l-0.361,0.14l-0.36,0.143l-0.359,0.145l-0.357,0.147l-0.356,0.149l-0.355,0.151l-0.354,0.153l-0.352,0.156l-0.352,0.157l-0.35,0.159l-0.348,0.162l-0.347,0.163l-0.346,0.166l-0.345,0.168l-0.343,0.169l-0.343,0.172l-0.34,0.173l-0.339,0.176l-0.339,0.177l-0.336,0.18l-0.336,0.181l-0.334,0.184l-0.333,0.185l-0.331,0.187l-0.33,0.19l-0.328,0.191l-0.328,0.193l-0.325,0.195l-0.325,0.197l-0.323,0.198l-0.321,0.201l-0.32,0.202l-0.319,0.205l-0.317,0.206l-0.316,0.208l-0.315,0.209l-0.313,0.212l-0.311,0.214l-0.31,0.215l-0.309,0.217l-0.307,0.219l-0.306,0.22l-0.304,0.222l-0.303,0.225l-0.301,0.225l-0.3,0.228l-0.298,0.229l-0.297,0.231l-0.295,0.233l-0.294,0.234l-0.292,0.236l-0.291,0.238l-0.288,0.24l-0.288,0.241l-0.286,0.243l-0.285,0.244l-0.282,0.246l-0.281,0.248l-0.28,0.249l-0.278,0.251l-0.277,0.253l-0.274,0.254l-0.274,0.255l-0.272,0.258l-0.27,0.259l-0.268,0.26l-0.267,0.262l-0.265,0.263l-0.264,0.266l-0.262,0.266l-0.26,0.268l-0.259,0.27l-0.257,0.271l-0.255,0.272l-0.253,0.274l-0.252,0.276l-0.251,0.277l-0.248,0.279l-0.247,0.279l-0.245,0.282l-0.243,0.282l-0.242,0.284l-0.24,0.286l-0.238,0.287l-0.237,0.288l-0.234,0.29l-0.233,0.291l-0.232,0.293l-0.229,0.293l-0.228,0.296l-0.226,0.296l-0.224,0.298l-0.222,0.299l-0.221,0.3l-0.219,0.302l-0.216,0.303l-0.216,0.304l-0.213,0.306l-0.212,0.307l-0.209,0.308l-0.208,0.309l-0.206,0.311l-0.204,0.312l-0.202,0.313l-0.201,0.314l-0.198,0.315l-0.197,0.317l-0.195,0.318l-0.193,0.319l-0.191,0.32l-0.189,0.321l-0.187,0.323l-0.185,0.323l-0.184,0.325l-0.181,0.326l-0.18,0.327l-0.177,0.328l-0.176,0.329l-0.174,0.33l-0.171,0.331l-0.17,0.333l-0.168,0.333l-0.166,0.335l-0.164,0.335l-0.162,0.337l-0.16,0.337l-0.157,0.338l-0.156,0.34l-0.154,0.341l-0.152,0.341l-0.15,0.343l-0.148,0.343l-0.146,0.345l-0.143,0.345l-0.142,0.346l-0.14,0.347l-0.137,0.349l-0.136,0.349l-0.133,0.35l-0.132,0.351l-0.129,0.351l-0.127,0.353l-0.125,0.354l-0.123,0.354l-0.121,0.355l-0.119,0.356l-0.117,0.357l-0.114,0.358l-0.113,0.359l-0.11,0.359l-0.108,0.36l-0.106,0.361l-0.104,0.362l-0.102,0.362l-0.099,0.364l-0.098,0.363l-0.095,0.365l-0.093,0.366l-0.091,0.366l-0.088,0.366l-0.087,0.368l-0.084,0.369l-0.082,0.369l-0.079,0.369l-0.078,0.371l-0.075,0.371l-0.073,0.371l-0.071,0.373l-0.069,0.373l-0.066,0.373l-0.064,0.374l-0.062,0.375l-0.059,0.376l-0.057,0.376l-0.055,0.376l-0.053,0.378l-0.05,0.377l-0.048,0.379l-0.046,0.379l-0.043,0.379l-0.041,0.38l-0.039,0.38l-0.036,0.381l-0.034,0.382l-0.032,0.382l-0.029,0.382l-0.027,0.383l-0.025,0.383l-0.022,0.384l-0.02,0.384l-0.017,0.385l-0.016,0.385l-0.012,0.386l-0.01,0.386l-0.008,0.387l-0.006,0.386l-0.003,0.387l0,0.388l0.002,0.388l0.004,0.388l0.007,0.389l0.009,0.389l0.011,0.39l0.015,0.389l0.016,0.39l0.019,0.39l0.022,0.391l0.024,0.391l0.026,0.392l0.029,0.391l0.032,0.392l0.034,0.392l0.037,0.392l0.039,0.393l0.041,0.392l0.045,0.393l0.047,0.394l0.049,0.393l0.052,0.394l0.054,0.394l0.057,0.394l0.06,0.394l0.062,0.394l0.065,0.395l0.067,0.394l0.07,0.395l0.072,0.395l0.076,0.395l0.077,0.393l0.08,0.392l0.082,0.392l0.084,0.39l0.087,0.388l0.09,0.389l0.091,0.387l0.094,0.385l0.096,0.385l0.099,0.383l0.101,0.383l0.103,0.381l0.105,0.38l0.108,0.379l0.11,0.378l0.112,0.377l0.114,0.375l0.117,0.375l0.119,0.373l0.121,0.372l0.123,0.371l0.126,0.37l0.127,0.368l0.13,0.367l0.132,0.366l0.134,0.365l0.137,0.364l0.138,0.362l0.141,0.361l0.143,0.36l0.145,0.359l0.146,0.358l0.149,0.356l0.152,0.355l0.153,0.354l0.155,0.352l0.158,0.351l0.159,0.35l0.162,0.348l0.163,0.348l0.166,0.346l0.167,0.345l0.17,0.343l0.171,0.342l0.174,0.341l0.176,0.339l0.177,0.338l0.18,0.337l0.181,0.335l0.184,0.334l0.185,0.333l0.187,0.331l0.189,0.33l0.191,0.329l0.194,0.327l0.194,0.326l0.197,0.324l0.199,0.323l0.201,0.322l0.202,0.32l0.204,0.318l0.207,0.318l0.208,0.316l0.209,0.314l0.212,0.313l0.213,0.312l0.215,0.31l0.218,0.309l0.218,0.307l0.221,0.305l0.222,0.305l0.224,0.302l0.226,0.302l0.228,0.299l0.229,0.298l0.231,0.297l0.233,0.295l0.234,0.294l0.236,0.292l0.238,0.291l0.239,0.289l0.242,0.287l0.242,0.286l0.245,0.285l0.246,0.283l0.248,0.281l0.249,0.28l0.251,0.278l0.252,0.276l0.254,0.275l0.256,0.273l0.257,0.272l0.259,0.27l0.261,0.269l0.262,0.266l0.263,0.266l0.265,0.263l0.267,0.262l0.268,0.26l0.27,0.259l0.271,0.257l0.272,0.255l0.274,0.254l0.276,0.252l0.277,0.25l0.278,0.248l0.28,0.247l0.281,0.245l0.283,0.244l0.284,0.242l0.286,0.239l0.286,0.239l0.289,0.236l0.29,0.235l0.291,0.233l0.292,0.231l0.294,0.23l0.295,0.227l0.297,0.226l0.298,0.224l0.299,0.223l0.3,0.22l0.302,0.219l0.303,0.217l0.304,0.215l0.306,0.213l0.307,0.212l0.307,0.209l0.31,0.208l0.311,0.206l0.311,0.205l0.313,0.202l0.315,0.2l0.315,0.199l0.317,0.196l0.317,0.195l0.319,0.193l0.321,0.191l0.321,0.189l0.322,0.187l0.324,0.186l0.325,0.183l0.325,0.181l0.327,0.18l0.328,0.178l0.33,0.175l0.33,0.174l0.331,0.172l0.332,0.17l0.334,0.167l0.334,0.166l0.336,0.164l0.336,0.162l0.338,0.16l0.338,0.158l0.34,0.156l0.34,0.154l0.342,0.151l0.343,0.15l0.343,0.148l0.344,0.146l0.346,0.144l0.346,0.141l0.347,0.14l0.349,0.138l0.349,0.135l0.35,0.134l0.351,0.131l0.351,0.129l0.353,0.128l0.353,0.125l0.355,0.123l0.355,0.121l0.356,0.119l0.357,0.116l0.358,0.115l0.358,0.112l0.36,0.111l0.36,0.108l0.361,0.106l0.362,0.104l0.362,0.101l0.363,0.1l0.364,0.097l0.365,0.095l0.365,0.093l0.366,0.091l0.368,0.089l0.367,0.086l0.368,0.084l0.369,0.082l0.37,0.08l0.371,0.077l0.371,0.076l0.371,0.073l0.372,0.071l0.374,0.068l0.373,0.066l0.374,0.064l0.375,0.062l0.376,0.06l0.375,0.057l0.377,0.055l0.377,0.052l0.378,0.051l0.378,0.048l0.379,0.045l0.38,0.044l0.379,0.041l0.381,0.038l0.381,0.037l0.381,0.034l0.382,0.032l0.383,0.029l0.383,0.027l0.383,0.024l0.384,0.023l0.384,0.02l0.385,0.017l0.385,0.015l0.386,0.013l0.386,0.01l0.386,0.008l0.387,0.005l0.387,0.003l0.388,0.001l0.388,-0.002l0.388,-0.004l0.389,-0.007l0.389,-0.009l0.389,-0.012l0.39,-0.014l0.39,-0.017l0.39,-0.019l0.391,-0.021l0.391,-0.024l0.391,-0.027l0.392,-0.029l0.392,-0.032l0.392,-0.034l0.392,-0.036l0.393,-0.039l0.392,-0.042l0.393,-0.044l0.394,-0.047l0.393,-0.049l0.393,-0.052l0.394,-0.055l0.394,-0.057l0.394,-0.059l0.395,-0.062l0.394,-0.065l0.395,-0.067l0.395,-0.07l0.395,-0.073l0.394,-0.075l0.393,-0.077l0.393,-0.08l0.391,-0.083l0.39,-0.084l0.389,-0.087l0.388,-0.089l0.387,-0.092l0.386,-0.094l0.385,-0.096l0.383,-0.099l0.383,-0.1l0.381,-0.103l0.38,-0.106l0.379,-0.107l0.378,-0.11l0.377,-0.113l0.375,-0.114l0.374,-0.116l0.374,-0.119l0.372,-0.121l0.371,-0.124l0.369,-0.125l0.369,-0.128l0.367,-0.13l0.366,-0.132l0.365,-0.134l0.363,-0.136l0.363,-0.139l0.361,-0.14l0.36,-0.143l0.359,-0.145l0.357,-0.147l0.357,-0.149l0.355,-0.151l0.353,-0.153l0.353,-0.156l0.351,-0.157l0.35,-0.16l0.348,-0.161l0.347,-0.164l0.346,-0.165l0.345,-0.168l0.344,-0.169l0.342,-0.172l0.341,-0.174l0.339,-0.175l0.338,-0.178l0.337,-0.179l0.335,-0.182l0.334,-0.183l0.333,-0.185l0.331,-0.188l0.33,-0.189l0.329,-0.191l0.327,-0.193l0.325,-0.195l0.325,-0.197l0.323,-0.199l0.321,-0.2l0.321,-0.203l0.318,-0.204l0.318,-0.206l0.316,-0.208l0.314,-0.21l0.313,-0.211l0.312,-0.214l0.31,-0.215l0.308,-0.217l0.307,-0.219l0.306,-0.22l0.304,-0.223l0.303,-0.224l0.301,-0.226l0.3,-0.227l0.298,-0.229l0.297,-0.231l0.295,-0.233l0.294,-0.235l0.292,-0.236l0.291,-0.237l0.289,-0.24l0.287,-0.241l0.286,-0.243l0.284,-0.244l0.283,-0.246l0.282,-0.248l0.279,-0.249l0.278,-0.251l0.277,-0.253l0.275,-0.254l0.273,-0.256l0.272,-0.257l0.27,-0.259l0.268,-0.26l0.267,-0.262l0.265,-0.264l0.264,-0.265l0.262,-0.266l0.26,-0.268l0.259,-0.27l0.257,-0.271l0.255,-0.273l0.254,-0.274l0.252,-0.275l0.25,-0.277l0.248,-0.279l0.247,-0.28l0.245,-0.281l0.244,-0.283l0.241,-0.284l0.24,-0.285l0.238,-0.287l0.237,-0.289l0.235,-0.289l0.232,-0.291l0.232,-0.293l0.229,-0.294l0.228,-0.295l0.226,-0.296l0.224,-0.298l0.222,-0.299l0.221,-0.301l0.219,-0.301l0.217,-0.303l0.215,-0.305l0.213,-0.305l0.212,-0.307l0.209,-0.308l0.208,-0.309l0.206,-0.311l0.204,-0.312l0.202,-0.313l0.201,-0.314l0.198,-0.316l0.197,-0.316l0.195,-0.318l0.193,-0.319l0.191,-0.32l0.189,-0.322l0.187,-0.322l0.185,-0.323l0.184,-0.325l0.181,-0.326l0.18,-0.327l0.177,-0.328l0.176,-0.329l0.174,-0.33l0.171,-0.331l0.17,-0.333l0.168,-0.333l0.166,-0.335l0.164,-0.335l0.162,-0.337l0.16,-0.337l0.157,-0.339l0.156,-0.339l0.154,-0.341l0.152,-0.342l0.15,-0.342l0.148,-0.343l0.146,-0.345l0.144,-0.345l0.141,-0.346l0.14,-0.348l0.137,-0.348l0.136,-0.349l0.133,-0.35l0.132,-0.351l0.129,-0.352l0.127,-0.352l0.125,-0.354l0.124,-0.354l0.12,-0.356l0.119,-0.356l0.117,-0.357l0.115,-0.357l0.112,-0.359l0.11,-0.359l0.108,-0.36l0.106,-0.361l0.104,-0.362l0.102,-0.362l0.1,-0.364l0.097,-0.364l0.095,-0.364l0.093,-0.366l0.091,-0.366l0.088,-0.367l0.087,-0.368l0.084,-0.368l0.082,-0.369l0.08,-0.37l0.077,-0.37l0.075,-0.371l0.073,-0.372l0.071,-0.372l0.069,-0.373l0.066,-0.374l0.064,-0.374l0.062,-0.374l0.059,-0.376l0.058,-0.376l0.055,-0.377l0.052,-0.377l0.05,-0.377l0.048,-0.379l0.046,-0.379l0.043,-0.379l0.042,-0.38l0.038,-0.381l0.037,-0.38l0.034,-0.382l0.031,-0.382l0.03,-0.382l0.027,-0.383l0.024,-0.384l0.022,-0.384l0.02,-0.384l0.018,-0.384l0.015,-0.385l0.012,-0.386l0.011,-0.387l0.008,-0.386l0.005,-0.386l0.003,-0.388l0,-0.388l-0.001,-0.387l-0.005,-0.389l-0.006,-0.389l-0.01,-0.388l-0.011,-0.39l-0.014,-0.39l-0.017,-0.39l-0.019,-0.39l-0.022,-0.391l-0.024,-0.391l-0.026,-0.391l-0.029,-0.391l-0.032,-0.392l-0.034,-0.392l-0.037,-0.392l-0.039,-0.393l-0.041,-0.393l-0.045,-0.393l-0.046,-0.393l-0.05,-0.393l-0.051,-0.394l-0.055,-0.394l-0.057,-0.394l-0.059,-0.394l-0.063,-0.394l-0.064,-0.395l-0.068,-0.395l-0.07,-0.394l-0.072,-0.395l-0.075,-0.395l-0.078,-0.393l-0.079,-0.392l-0.083,-0.392l-0.084,-0.39l-0.087,-0.389l-0.09,-0.388l-0.091,-0.387l-0.094,-0.385l-0.096,-0.385l-0.099,-0.384l-0.1,-0.382l-0.104,-0.381l-0.105,-0.38l-0.108,-0.379l-0.11,-0.378l-0.112,-0.377l-0.114,-0.376l-0.117,-0.374l-0.119,-0.373l-0.121,-0.372l-0.123,-0.371l-0.126,-0.37l-0.127,-0.368l-0.13,-0.368l-0.132,-0.366l-0.134,-0.364l-0.137,-0.364l-0.138,-0.363l-0.141,-0.361l-0.142,-0.36l-0.145,-0.358l-0.147,-0.358l-0.149,-0.356l-0.151,-0.355l-0.154,-0.354l-0.155,-0.352l-0.157,-0.351l-0.16,-0.35l-0.162,-0.349l-0.163,-0.347l-0.165,-0.346l-0.168,-0.345l-0.17,-0.343l-0.171,-0.342l-0.174,-0.341l-0.175,-0.339l-0.178,-0.338l-0.18,-0.337l-0.181,-0.336l-0.183,-0.334l-0.186,-0.332l-0.187,-0.332l-0.189,-0.329l-0.191,-0.329l-0.194,-0.327l-0.194,-0.326l-0.197,-0.324l-0.199,-0.323l-0.201,-0.322l-0.202,-0.32l-0.204,-0.319l-0.206,-0.317l-0.208,-0.316l-0.21,-0.315l-0.212,-0.312l-0.213,-0.312l-0.215,-0.31l-0.217,-0.309l-0.219,-0.307l-0.221,-0.306l-0.222,-0.304l-0.224,-0.303l-0.226,-0.301l-0.227,-0.3l-0.23,-0.298l-0.231,-0.297l-0.232,-0.295l-0.235,-0.293l-0.236,-0.292l-0.238,-0.291l-0.239,-0.289l-0.241,-0.288l-0.243,-0.286l-0.245,-0.284l-0.245,-0.283l-0.248,-0.281l-0.25,-0.28l-0.251,-0.278l-0.252,-0.276l-0.254,-0.276l-0.256,-0.273l-0.257,-0.271l-0.259,-0.27l-0.261,-0.269l-0.262,-0.267l-0.263,-0.265l-0.265,-0.263l-0.267,-0.263l-0.268,-0.26l-0.269,-0.258l-0.271,-0.257l-0.273,-0.255l-0.274,-0.254l-0.276,-0.252l-0.277,-0.25l-0.278,-0.249l-0.28,-0.247l-0.281,-0.245l-0.283,-0.243l-0.284,-0.242l-0.286,-0.24l-0.286,-0.238l-0.289,-0.236l-0.29,-0.235l-0.291,-0.233l-0.292,-0.231l-0.294,-0.23l-0.295,-0.227l-0.297,-0.226l-0.297,-0.225l-0.3,-0.222l-0.3,-0.221l-0.302,-0.218l-0.303,-0.217l-0.304,-0.215l-0.306,-0.214l-0.306,-0.211l-0.308,-0.21l-0.31,-0.208l-0.31,-0.206l-0.312,-0.204l-0.313,-0.202l-0.315,-0.2l-0.315,-0.199l-0.316,-0.197l-0.318,-0.194l-0.319,-0.193l-0.32,-0.191l-0.322,-0.19l-0.322,-0.187l-0.324,-0.185l-0.324,-0.183l-0.326,-0.182l-0.327,-0.179l-0.328,-0.178l-0.329,-0.176l-0.331,-0.173l-0.331,-0.172l-0.332,-0.17l-0.334,-0.168l-0.334,-0.166l-0.336,-0.163l-0.336,-0.162l-0.337,-0.16l-0.339,-0.158l-0.34,-0.156l-0.34,-0.154l-0.342,-0.152l-0.342,-0.15l-0.344,-0.148l-0.344,-0.145l-0.346,-0.144l-0.346,-0.142l-0.347,-0.139l-0.348,-0.138l-0.349,-0.135l-0.35,-0.134l-0.351,-0.131l-0.352,-0.13l-0.353,-0.127l-0.353,-0.125l-0.355,-0.123l-0.355,-0.121l-0.356,-0.119l-0.357,-0.116l-0.358,-0.115l-0.358,-0.113l-0.359,-0.11l-0.361,-0.108l-0.361,-0.106l-0.361,-0.104l-0.363,-0.102l-0.363,-0.099l-0.364,-0.097l-0.365,-0.096l-0.365,-0.093l-0.366,-0.09l-0.367,-0.089l-0.368,-0.086l-0.368,-0.084l-0.369,-0.082l-0.37,-0.08l-0.37,-0.078l-0.371,-0.075l-0.372,-0.073l-0.372,-0.071l-0.373,-0.068l-0.374,-0.067l-0.374,-0.064l-0.375,-0.061l-0.375,-0.06l-0.376,-0.057l-0.377,-0.055l-0.377,-0.053l-0.378,-0.05l-0.378,-0.048l-0.379,-0.046l-0.38,-0.043l-0.379,-0.041l-0.381,-0.039l-0.381,-0.036l-0.381,-0.034l-0.382,-0.032l-0.383,-0.029l-0.383,-0.027l-0.383,-0.025l-0.384,-0.022l-0.384,-0.02l-0.385,-0.017l-0.385,-0.015l-0.386,-0.013l-0.386,-0.01l-0.386,-0.008l-0.387,-0.006l-0.387,-0.003l-0.388,0l-0.388,0.002Z" style="fill:#eff0f0;"/></g><g><path d="M73.98,92.009c4.527,-0.846 8.889,2.141 9.736,6.668c0.847,4.527 -2.141,8.889 -6.668,9.736c-4.526,0.846 -8.889,-2.142 -9.735,-6.668c-0.847,-4.527 2.141,-8.889 6.667,-9.736Z" style="fill:#eff0f0;"/><path d="M75.722,88.465l0.148,0.003l0.145,0.005l0.145,0.007l0.145,0.009l0.146,0.011l0.146,0.012l0.143,0.015l0.143,0.015l0.146,0.019l0.142,0.019l0.142,0.021l0.143,0.023l0.143,0.025l0.141,0.026l0.139,0.028l0.14,0.03l0.142,0.032l0.138,0.033l0.138,0.034l0.139,0.037l0.138,0.038l0.135,0.04l0.137,0.041l0.135,0.043l0.135,0.045l0.134,0.046l0.135,0.048l0.132,0.049l0.131,0.05l0.132,0.053l0.131,0.054l0.132,0.056l0.129,0.057l0.127,0.058l0.128,0.06l0.126,0.062l0.127,0.063l0.125,0.064l0.124,0.066l0.124,0.068l0.124,0.069l0.121,0.07l0.12,0.071l0.121,0.074l0.122,0.076l0.117,0.075l0.116,0.076l0.117,0.08l0.116,0.08l0.114,0.081l0.114,0.084l0.113,0.084l0.11,0.084l0.112,0.088l0.111,0.089l0.107,0.089l0.107,0.091l0.107,0.092l0.107,0.094l0.104,0.096l0.102,0.095l0.102,0.096l0.101,0.1l0.101,0.101l0.097,0.099l0.098,0.103l0.098,0.105l0.095,0.104l0.093,0.106l0.092,0.106l0.092,0.109l0.091,0.111l0.088,0.109l0.089,0.113l0.087,0.114l0.084,0.113l0.083,0.115l0.083,0.117l0.083,0.12l0.079,0.118l0.078,0.119l0.077,0.122l0.077,0.123l0.073,0.121l0.073,0.125l0.072,0.126l0.07,0.127l0.068,0.126l0.067,0.128l0.066,0.132l0.063,0.129l0.062,0.131l0.062,0.133l0.059,0.135l0.057,0.132l0.057,0.136l0.054,0.136l0.053,0.138l0.051,0.137l0.049,0.138l0.049,0.142l0.046,0.14l0.044,0.14l0.043,0.143l0.042,0.144l0.038,0.142l0.038,0.145l0.036,0.145l0.034,0.146l0.033,0.15l0.031,0.147l0.028,0.146l0.027,0.148l0.024,0.148l0.024,0.15l0.021,0.152l0.018,0.144l0.018,0.148l0.015,0.148l0.013,0.148l0.012,0.152l0.01,0.149l0.007,0.145l0.006,0.145l0.004,0.148l0.002,0.149l0,0.148l-0.001,0.149l-0.004,0.141l-0.005,0.145l-0.007,0.152l-0.009,0.145l-0.011,0.141l-0.012,0.148l-0.015,0.144l-0.015,0.14l-0.018,0.148l-0.02,0.143l-0.021,0.14l-0.023,0.144l-0.024,0.139l-0.027,0.142l-0.028,0.143l-0.03,0.138l-0.032,0.142l-0.032,0.138l-0.035,0.138l-0.037,0.141l-0.038,0.136l-0.04,0.137l-0.041,0.136l-0.043,0.135l-0.045,0.135l-0.045,0.133l-0.048,0.134l-0.05,0.133l-0.051,0.133l-0.053,0.133l-0.053,0.129l-0.055,0.129l-0.058,0.131l-0.058,0.127l-0.059,0.128l-0.063,0.129l-0.063,0.125l-0.064,0.125l-0.066,0.125l-0.068,0.124l-0.067,0.12l-0.071,0.122l-0.073,0.124l-0.072,0.119l-0.075,0.12l-0.077,0.12l-0.077,0.116l-0.078,0.115l-0.079,0.114l-0.083,0.117l-0.084,0.115l-0.084,0.112l-0.084,0.109l-0.086,0.111l-0.09,0.111l-0.09,0.109l-0.091,0.108l-0.093,0.107l-0.092,0.104l-0.096,0.105l-0.095,0.103l-0.097,0.101l-0.098,0.101l-0.1,0.1l-0.104,0.101l-0.101,0.097l-0.102,0.094l-0.105,0.096l-0.109,0.096l-0.107,0.092l-0.106,0.09l-0.112,0.092l-0.11,0.088l-0.111,0.088l-0.114,0.086l-0.115,0.086l-0.115,0.084l-0.116,0.082l-0.119,0.082l-0.119,0.08l-0.118,0.077l-0.122,0.077l-0.123,0.077l-0.122,0.073l-0.125,0.073l-0.127,0.073l-0.126,0.07l-0.126,0.067l-0.129,0.068l-0.131,0.066l-0.128,0.062l-0.131,0.062l-0.133,0.062l-0.134,0.06l-0.136,0.058l-0.133,0.055l-0.136,0.054l-0.139,0.054l-0.137,0.051l-0.139,0.049l-0.139,0.048l-0.141,0.047l-0.142,0.044l-0.142,0.043l-0.142,0.041l-0.145,0.039l-0.146,0.038l-0.143,0.036l-0.146,0.034l-0.149,0.033l-0.146,0.03l-0.148,0.028l-0.149,0.027l-0.148,0.025l-0.149,0.023l-0.148,0.021l-0.148,0.019l-0.15,0.017l-0.148,0.016l-0.148,0.013l-0.148,0.011l-0.147,0.01l-0.148,0.008l-0.149,0.006l-0.147,0.003l-0.147,0.003l-0.146,0l-0.147,-0.002l-0.147,-0.003l-0.146,-0.005l-0.145,-0.008l-0.146,-0.008l-0.145,-0.011l-0.145,-0.012l-0.146,-0.015l-0.143,-0.016l-0.143,-0.018l-0.143,-0.019l-0.144,-0.021l-0.141,-0.023l-0.141,-0.025l-0.142,-0.026l-0.142,-0.029l-0.14,-0.029l-0.138,-0.032l-0.14,-0.033l-0.14,-0.035l-0.136,-0.036l-0.137,-0.038l-0.138,-0.04l-0.136,-0.041l-0.135,-0.043l-0.137,-0.045l-0.134,-0.047l-0.132,-0.047l-0.134,-0.049l-0.132,-0.051l-0.13,-0.052l-0.131,-0.054l-0.13,-0.056l-0.13,-0.057l-0.13,-0.059l-0.127,-0.06l-0.125,-0.061l-0.127,-0.063l-0.126,-0.065l-0.125,-0.066l-0.121,-0.066l-0.124,-0.069l-0.124,-0.072l-0.12,-0.071l-0.12,-0.073l-0.118,-0.074l-0.121,-0.077l-0.117,-0.078l-0.114,-0.077l-0.118,-0.082l-0.113,-0.08l-0.114,-0.083l-0.114,-0.086l-0.11,-0.084l-0.11,-0.086l-0.111,-0.09l-0.109,-0.09l-0.108,-0.091l-0.105,-0.091l-0.106,-0.094l-0.105,-0.096l-0.103,-0.096l-0.1,-0.095l-0.102,-0.099l-0.101,-0.101l-0.098,-0.1l-0.098,-0.104l-0.098,-0.105l-0.092,-0.102l-0.095,-0.107l-0.094,-0.108l-0.091,-0.107l-0.091,-0.112l-0.087,-0.109l-0.088,-0.112l-0.087,-0.113l-0.086,-0.115l-0.083,-0.115l-0.083,-0.116l-0.082,-0.12l-0.079,-0.117l-0.078,-0.119l-0.078,-0.124l-0.076,-0.122l-0.073,-0.121l-0.074,-0.126l-0.071,-0.125l-0.07,-0.126l-0.068,-0.128l-0.067,-0.128l-0.066,-0.131l-0.064,-0.129l-0.062,-0.131l-0.061,-0.134l-0.058,-0.131l-0.059,-0.135l-0.057,-0.139l-0.053,-0.133l-0.053,-0.137l-0.051,-0.138l-0.05,-0.139l-0.047,-0.138l-0.047,-0.143l-0.045,-0.142l-0.043,-0.141l-0.041,-0.145l-0.039,-0.141l-0.038,-0.145l-0.035,-0.146l-0.035,-0.146l-0.033,-0.149l-0.03,-0.147l-0.028,-0.146l-0.027,-0.148l-0.025,-0.148l-0.023,-0.151l-0.021,-0.147l-0.019,-0.148l-0.017,-0.152l-0.015,-0.145l-0.014,-0.148l-0.011,-0.151l-0.01,-0.149l-0.007,-0.145l-0.006,-0.145l-0.004,-0.149l-0.002,-0.148l-0.001,-0.149l0.002,-0.145l0.003,-0.144l0.006,-0.149l0.007,-0.148l0.009,-0.145l0.01,-0.141l0.013,-0.144l0.014,-0.148l0.016,-0.144l0.018,-0.14l0.019,-0.147l0.022,-0.144l0.023,-0.14l0.024,-0.139l0.026,-0.143l0.029,-0.142l0.029,-0.139l0.032,-0.141l0.033,-0.139l0.035,-0.137l0.037,-0.14l0.038,-0.137l0.04,-0.137l0.041,-0.136l0.043,-0.136l0.045,-0.135l0.045,-0.131l0.048,-0.134l0.049,-0.135l0.052,-0.133l0.053,-0.133l0.053,-0.129l0.055,-0.128l0.056,-0.128l0.059,-0.13l0.062,-0.131l0.061,-0.125l0.063,-0.126l0.064,-0.126l0.066,-0.123l0.067,-0.124l0.068,-0.122l0.07,-0.121l0.074,-0.124l0.073,-0.12l0.075,-0.12l0.076,-0.118l0.075,-0.114l0.08,-0.119l0.081,-0.116l0.08,-0.114l0.085,-0.115l0.084,-0.112l0.083,-0.109l0.088,-0.112l0.09,-0.111l0.088,-0.108l0.092,-0.108l0.093,-0.107l0.091,-0.103l0.095,-0.105l0.098,-0.105l0.096,-0.101l0.098,-0.1l0.101,-0.101l0.101,-0.099l0.102,-0.097l0.104,-0.096l0.105,-0.096l0.107,-0.094l0.107,-0.093l0.107,-0.09l0.111,-0.092l0.112,-0.09l0.11,-0.086l0.114,-0.087l0.115,-0.085l0.114,-0.083l0.118,-0.084l0.118,-0.081l0.118,-0.08l0.12,-0.078l0.119,-0.076l0.124,-0.077l0.124,-0.074l0.123,-0.073l0.127,-0.072l0.125,-0.069l0.127,-0.068l0.13,-0.068l0.129,-0.065l0.13,-0.064l0.132,-0.062l0.133,-0.061l0.133,-0.06l0.133,-0.057l0.135,-0.056l0.138,-0.055l0.137,-0.053l0.14,-0.052l0.137,-0.048l0.139,-0.048l0.14,-0.046l0.143,-0.045l0.142,-0.043l0.142,-0.041l0.144,-0.04l0.144,-0.037l0.147,-0.036l0.147,-0.034l0.144,-0.032l0.149,-0.031l0.148,-0.029l0.148,-0.026l0.15,-0.026l0.148,-0.022l0.148,-0.021l0.149,-0.019l0.148,-0.018l0.149,-0.015l0.146,-0.013l0.148,-0.012l0.15,-0.009l0.147,-0.008l0.147,-0.006l0.148,-0.004l0.149,-0.002l0.145,0l0.147,0.002Zm-0.267,3.401l-0.104,0.002l-0.105,0.002l-0.104,0.005l-0.105,0.005l-0.105,0.007l-0.106,0.008l-0.105,0.009l-0.105,0.011l-0.106,0.013l-0.106,0.013l-0.106,0.015l-0.105,0.016l-0.106,0.018l-0.107,0.019l-0.105,0.021l-0.106,0.022l-0.104,0.023l-0.104,0.024l-0.104,0.025l-0.103,0.027l-0.102,0.028l-0.102,0.029l-0.101,0.031l-0.1,0.031l-0.1,0.033l-0.099,0.034l-0.099,0.036l-0.098,0.036l-0.097,0.037l-0.096,0.039l-0.096,0.04l-0.096,0.041l-0.094,0.042l-0.094,0.043l-0.093,0.044l-0.093,0.045l-0.091,0.047l-0.091,0.047l-0.091,0.049l-0.089,0.049l-0.089,0.051l-0.088,0.051l-0.088,0.053l-0.086,0.054l-0.086,0.054l-0.085,0.056l-0.084,0.057l-0.084,0.057l-0.083,0.059l-0.082,0.059l-0.081,0.061l-0.08,0.061l-0.08,0.062l-0.078,0.064l-0.078,0.064l-0.077,0.065l-0.076,0.066l-0.076,0.067l-0.074,0.067l-0.074,0.069l-0.073,0.069l-0.072,0.07l-0.071,0.071l-0.07,0.072l-0.069,0.073l-0.068,0.073l-0.068,0.074l-0.066,0.075l-0.066,0.076l-0.065,0.077l-0.064,0.077l-0.062,0.078l-0.062,0.079l-0.061,0.079l-0.06,0.08l-0.059,0.081l-0.058,0.082l-0.057,0.082l-0.056,0.083l-0.056,0.084l-0.054,0.084l-0.053,0.085l-0.052,0.085l-0.051,0.086l-0.05,0.087l-0.049,0.088l-0.048,0.088l-0.047,0.088l-0.046,0.089l-0.044,0.09l-0.044,0.09l-0.043,0.091l-0.042,0.092l-0.04,0.091l-0.04,0.093l-0.038,0.093l-0.037,0.093l-0.036,0.094l-0.035,0.095l-0.034,0.094l-0.033,0.096l-0.032,0.096l-0.03,0.096l-0.029,0.096l-0.029,0.098l-0.027,0.097l-0.026,0.098l-0.024,0.098l-0.024,0.099l-0.022,0.099l-0.021,0.099l-0.02,0.1l-0.019,0.1l-0.017,0.101l-0.017,0.101l-0.015,0.101l-0.014,0.101l-0.012,0.102l-0.012,0.102l-0.01,0.102l-0.008,0.103l-0.008,0.103l-0.006,0.103l-0.005,0.103l-0.004,0.104l-0.002,0.104l-0.002,0.104l0.001,0.104l0.001,0.104l0.003,0.105l0.004,0.105l0.005,0.104l0.007,0.106l0.008,0.105l0.01,0.105l0.011,0.106l0.012,0.105l0.014,0.106l0.015,0.106l0.016,0.106l0.018,0.106l0.019,0.106l0.02,0.106l0.022,0.105l0.023,0.105l0.024,0.104l0.026,0.103l0.027,0.103l0.028,0.102l0.029,0.102l0.03,0.101l0.032,0.1l0.033,0.1l0.034,0.099l0.035,0.099l0.036,0.098l0.038,0.097l0.038,0.097l0.04,0.096l0.041,0.095l0.042,0.094l0.043,0.094l0.045,0.093l0.045,0.093l0.046,0.092l0.048,0.091l0.048,0.09l0.05,0.089l0.05,0.089l0.052,0.088l0.053,0.088l0.053,0.086l0.055,0.086l0.056,0.085l0.056,0.085l0.058,0.083l0.058,0.083l0.06,0.082l0.06,0.081l0.062,0.08l0.062,0.08l0.063,0.079l0.064,0.077l0.065,0.078l0.066,0.076l0.067,0.075l0.068,0.075l0.068,0.073l0.069,0.073l0.071,0.072l0.071,0.071l0.071,0.07l0.073,0.069l0.074,0.069l0.074,0.067l0.075,0.067l0.076,0.065l0.076,0.065l0.077,0.064l0.078,0.063l0.079,0.062l0.08,0.061l0.08,0.059l0.081,0.059l0.081,0.059l0.083,0.057l0.082,0.056l0.084,0.055l0.084,0.054l0.085,0.053l0.086,0.052l0.086,0.051l0.087,0.05l0.087,0.049l0.088,0.048l0.089,0.047l0.089,0.046l0.09,0.045l0.09,0.044l0.091,0.042l0.091,0.042l0.092,0.04l0.092,0.04l0.093,0.038l0.094,0.037l0.094,0.037l0.094,0.035l0.095,0.033l0.095,0.033l0.096,0.032l0.096,0.03l0.097,0.03l0.097,0.028l0.097,0.027l0.098,0.026l0.099,0.025l0.098,0.023l0.099,0.022l0.1,0.022l0.1,0.019l0.1,0.019l0.1,0.018l0.101,0.016l0.101,0.015l0.102,0.014l0.101,0.012l0.102,0.012l0.103,0.01l0.102,0.009l0.103,0.007l0.103,0.007l0.104,0.005l0.103,0.003l0.104,0.003l0.104,0.001l0.104,0l0.105,-0.002l0.104,-0.003l0.105,-0.004l0.105,-0.005l0.105,-0.007l0.105,-0.008l0.106,-0.01l0.105,-0.01l0.106,-0.013l0.105,-0.013l0.106,-0.015l0.106,-0.017l0.106,-0.017l0.106,-0.019l0.106,-0.021l0.105,-0.022l0.105,-0.023l0.104,-0.024l0.104,-0.026l0.102,-0.026l0.103,-0.028l0.101,-0.03l0.101,-0.03l0.101,-0.032l0.1,-0.033l0.099,-0.034l0.098,-0.035l0.098,-0.036l0.098,-0.038l0.096,-0.038l0.096,-0.04l0.095,-0.041l0.095,-0.042l0.094,-0.043l0.093,-0.044l0.092,-0.046l0.092,-0.046l0.091,-0.047l0.09,-0.049l0.09,-0.049l0.089,-0.051l0.088,-0.052l0.087,-0.052l0.087,-0.054l0.086,-0.055l0.085,-0.055l0.084,-0.057l0.084,-0.057l0.082,-0.059l0.082,-0.06l0.081,-0.06l0.081,-0.061l0.079,-0.063l0.079,-0.063l0.078,-0.064l0.077,-0.065l0.076,-0.066l0.076,-0.067l0.074,-0.067l0.074,-0.069l0.072,-0.069l0.072,-0.07l0.071,-0.071l0.071,-0.072l0.069,-0.073l0.068,-0.073l0.068,-0.074l0.066,-0.075l0.066,-0.076l0.065,-0.077l0.063,-0.077l0.063,-0.078l0.062,-0.079l0.061,-0.079l0.06,-0.08l0.059,-0.081l0.058,-0.082l0.057,-0.082l0.056,-0.083l0.055,-0.084l0.054,-0.084l0.053,-0.085l0.052,-0.085l0.052,-0.087l0.05,-0.086l0.049,-0.088l0.048,-0.088l0.047,-0.088l0.045,-0.09l0.045,-0.089l0.044,-0.091l0.043,-0.09l0.041,-0.092l0.041,-0.092l0.039,-0.092l0.039,-0.093l0.037,-0.093l0.036,-0.094l0.035,-0.095l0.034,-0.095l0.033,-0.095l0.031,-0.096l0.031,-0.096l0.029,-0.097l0.028,-0.097l0.027,-0.097l0.026,-0.098l0.025,-0.098l0.024,-0.099l0.022,-0.099l0.021,-0.1l0.02,-0.099l0.019,-0.101l0.017,-0.1l0.016,-0.101l0.015,-0.101l0.014,-0.101l0.013,-0.102l0.011,-0.102l0.01,-0.103l0.009,-0.102l0.008,-0.103l0.006,-0.103l0.005,-0.103l0.004,-0.104l0.002,-0.104l0.001,-0.104l0,-0.104l-0.001,-0.104l-0.003,-0.105l-0.004,-0.105l-0.006,-0.105l-0.007,-0.105l-0.008,-0.105l-0.009,-0.105l-0.011,-0.106l-0.012,-0.105l-0.014,-0.106l-0.015,-0.106l-0.016,-0.106l-0.018,-0.106l-0.019,-0.106l-0.021,-0.106l-0.021,-0.105l-0.023,-0.105l-0.025,-0.104l-0.025,-0.103l-0.027,-0.103l-0.028,-0.102l-0.029,-0.102l-0.031,-0.101l-0.031,-0.101l-0.033,-0.099l-0.034,-0.1l-0.035,-0.098l-0.037,-0.098l-0.037,-0.097l-0.039,-0.097l-0.04,-0.096l-0.04,-0.095l-0.042,-0.095l-0.044,-0.093l-0.044,-0.094l-0.045,-0.092l-0.046,-0.092l-0.048,-0.091l-0.048,-0.09l-0.05,-0.09l-0.051,-0.089l-0.051,-0.088l-0.053,-0.087l-0.054,-0.087l-0.054,-0.085l-0.056,-0.086l-0.056,-0.084l-0.058,-0.083l-0.059,-0.083l-0.059,-0.082l-0.061,-0.081l-0.061,-0.081l-0.062,-0.079l-0.063,-0.079l-0.065,-0.078l-0.065,-0.077l-0.065,-0.076l-0.067,-0.075l-0.068,-0.075l-0.068,-0.073l-0.07,-0.073l-0.07,-0.072l-0.071,-0.071l-0.072,-0.07l-0.072,-0.07l-0.074,-0.068l-0.074,-0.067l-0.075,-0.067l-0.076,-0.066l-0.076,-0.064l-0.078,-0.064l-0.078,-0.063l-0.078,-0.062l-0.08,-0.061l-0.08,-0.06l-0.081,-0.059l-0.082,-0.058l-0.082,-0.057l-0.083,-0.056l-0.083,-0.055l-0.085,-0.054l-0.084,-0.053l-0.086,-0.052l-0.086,-0.051l-0.087,-0.05l-0.087,-0.049l-0.088,-0.048l-0.089,-0.047l-0.089,-0.046l-0.09,-0.045l-0.09,-0.044l-0.091,-0.042l-0.091,-0.042l-0.092,-0.041l-0.093,-0.039l-0.092,-0.038l-0.094,-0.038l-0.094,-0.036l-0.094,-0.035l-0.095,-0.034l-0.095,-0.032l-0.096,-0.032l-0.096,-0.031l-0.097,-0.029l-0.097,-0.028l-0.098,-0.027l-0.098,-0.026l-0.098,-0.025l-0.099,-0.023l-0.099,-0.023l-0.099,-0.021l-0.1,-0.02l-0.1,-0.018l-0.101,-0.018l-0.1,-0.016l-0.102,-0.015l-0.101,-0.014l-0.102,-0.013l-0.102,-0.011l-0.102,-0.01l-0.103,-0.009l-0.103,-0.007l-0.103,-0.007l-0.103,-0.005l-0.104,-0.003l-0.103,-0.003l-0.104,-0.001l-0.105,0Z" style="fill:#eff0f0;"/><path d="M32.3,56.05c3.343,-0.625 6.564,1.581 7.189,4.924c0.625,3.342 -1.581,6.564 -4.924,7.189c-3.342,0.625 -6.563,-1.581 -7.189,-4.924c-0.625,-3.343 1.581,-6.564 4.924,-7.189Z" style="fill:#eff0f0;"/><path d="M33.601,52.542l0.122,0.003l0.118,0.005l0.117,0.005l0.118,0.007l0.121,0.009l0.117,0.011l0.114,0.011l0.122,0.013l0.116,0.015l0.114,0.015l0.117,0.018l0.118,0.018l0.116,0.021l0.115,0.021l0.113,0.023l0.115,0.024l0.114,0.026l0.113,0.027l0.112,0.028l0.11,0.029l0.116,0.032l0.111,0.033l0.109,0.033l0.112,0.035l0.107,0.036l0.113,0.038l0.111,0.04l0.103,0.038l0.107,0.041l0.109,0.044l0.105,0.043l0.109,0.047l0.105,0.046l0.102,0.046l0.107,0.051l0.101,0.049l0.1,0.05l0.106,0.054l0.101,0.054l0.102,0.055l0.1,0.057l0.097,0.055l0.097,0.058l0.101,0.061l0.098,0.062l0.091,0.058l0.1,0.066l0.098,0.067l0.089,0.061l0.092,0.065l0.094,0.069l0.093,0.07l0.091,0.07l0.088,0.069l0.091,0.073l0.087,0.072l0.087,0.073l0.088,0.076l0.086,0.076l0.084,0.077l0.084,0.078l0.086,0.082l0.081,0.08l0.078,0.077l0.081,0.084l0.083,0.086l0.077,0.084l0.077,0.084l0.076,0.086l0.076,0.088l0.074,0.087l0.074,0.09l0.075,0.094l0.068,0.087l0.072,0.093l0.07,0.094l0.068,0.094l0.068,0.096l0.063,0.092l0.067,0.1l0.065,0.1l0.06,0.094l0.062,0.1l0.061,0.101l0.06,0.101l0.058,0.103l0.057,0.103l0.056,0.103l0.054,0.105l0.053,0.105l0.052,0.105l0.053,0.112l0.048,0.106l0.048,0.106l0.049,0.113l0.044,0.109l0.046,0.114l0.041,0.108l0.041,0.109l0.044,0.122l0.037,0.11l0.037,0.11l0.036,0.117l0.036,0.117l0.034,0.118l0.032,0.117l0.03,0.118l0.028,0.113l0.028,0.119l0.028,0.125l0.024,0.119l0.023,0.119l0.021,0.117l0.021,0.123l0.019,0.123l0.018,0.123l0.015,0.124l0.014,0.117l0.012,0.117l0.01,0.118l0.01,0.124l0.008,0.124l0.006,0.118l0.005,0.118l0.003,0.124l0.002,0.118l0,0.118l-0.001,0.124l-0.003,0.118l-0.004,0.118l-0.006,0.118l-0.007,0.117l-0.009,0.118l-0.01,0.117l-0.012,0.125l-0.014,0.117l-0.013,0.111l-0.016,0.117l-0.017,0.117l-0.019,0.117l-0.021,0.116l-0.021,0.116l-0.022,0.11l-0.025,0.116l-0.026,0.116l-0.026,0.108l-0.029,0.116l-0.03,0.115l-0.032,0.114l-0.031,0.108l-0.033,0.108l-0.036,0.113l-0.035,0.107l-0.039,0.114l-0.041,0.112l-0.036,0.099l-0.043,0.113l-0.043,0.105l-0.043,0.105l-0.046,0.109l-0.046,0.104l-0.048,0.105l-0.048,0.103l-0.053,0.108l-0.049,0.097l-0.051,0.101l-0.057,0.108l-0.053,0.095l-0.055,0.099l-0.061,0.106l-0.059,0.099l-0.056,0.093l-0.058,0.093l-0.062,0.097l-0.068,0.103l-0.065,0.095l-0.062,0.09l-0.066,0.092l-0.068,0.093l-0.069,0.093l-0.069,0.09l-0.072,0.092l-0.072,0.089l-0.073,0.088l-0.072,0.085l-0.073,0.085l-0.079,0.089l-0.079,0.087l-0.078,0.083l-0.078,0.083l-0.078,0.08l-0.084,0.084l-0.084,0.081l-0.081,0.077l-0.084,0.078l-0.086,0.079l-0.085,0.075l-0.087,0.075l-0.092,0.078l-0.087,0.072l-0.089,0.071l-0.096,0.075l-0.089,0.068l-0.09,0.068l-0.1,0.072l-0.094,0.066l-0.092,0.064l-0.1,0.067l-0.097,0.064l-0.098,0.062l-0.101,0.063l-0.103,0.061l-0.097,0.057l-0.099,0.056l-0.106,0.06l-0.108,0.057l-0.101,0.053l-0.103,0.052l-0.11,0.054l-0.108,0.051l-0.105,0.048l-0.109,0.049l-0.109,0.047l-0.113,0.047l-0.111,0.044l-0.109,0.042l-0.113,0.042l-0.113,0.04l-0.114,0.039l-0.115,0.038l-0.114,0.036l-0.117,0.035l-0.118,0.034l-0.117,0.032l-0.116,0.03l-0.117,0.029l-0.119,0.028l-0.119,0.027l-0.123,0.025l-0.119,0.023l-0.12,0.021l-0.123,0.021l-0.12,0.019l-0.12,0.017l-0.12,0.015l-0.12,0.014l-0.124,0.013l-0.121,0.01l-0.118,0.01l-0.121,0.007l-0.12,0.007l-0.122,0.005l-0.121,0.003l-0.118,0.001l-0.117,0.001l-0.122,-0.002l-0.121,-0.003l-0.118,-0.004l-0.117,-0.006l-0.118,-0.007l-0.121,-0.009l-0.118,-0.01l-0.113,-0.011l-0.121,-0.013l-0.118,-0.015l-0.114,-0.015l-0.116,-0.018l-0.117,-0.019l-0.117,-0.02l-0.113,-0.021l-0.117,-0.023l-0.116,-0.025l-0.108,-0.025l-0.114,-0.027l-0.118,-0.029l-0.108,-0.029l-0.11,-0.03l-0.116,-0.034l-0.11,-0.034l-0.109,-0.034l-0.112,-0.037l-0.111,-0.038l-0.104,-0.037l-0.108,-0.04l-0.11,-0.043l-0.107,-0.042l-0.107,-0.044l-0.103,-0.045l-0.108,-0.047l-0.105,-0.048l-0.102,-0.048l-0.103,-0.05l-0.103,-0.051l-0.103,-0.053l-0.102,-0.054l-0.101,-0.055l-0.1,-0.057l-0.097,-0.056l-0.097,-0.057l-0.102,-0.062l-0.097,-0.061l-0.091,-0.058l-0.1,-0.066l-0.093,-0.063l-0.095,-0.065l-0.094,-0.068l-0.091,-0.066l-0.092,-0.069l-0.093,-0.071l-0.091,-0.072l-0.082,-0.066l-0.092,-0.076l-0.089,-0.075l-0.087,-0.075l-0.087,-0.077l-0.082,-0.075l-0.086,-0.08l-0.082,-0.079l-0.08,-0.078l-0.083,-0.082l-0.081,-0.084l-0.079,-0.082l-0.081,-0.087l-0.077,-0.085l-0.074,-0.084l-0.075,-0.086l-0.075,-0.089l-0.076,-0.092l-0.07,-0.088l-0.07,-0.089l-0.073,-0.095l-0.072,-0.096l-0.066,-0.093l-0.065,-0.091l-0.07,-0.101l-0.063,-0.095l-0.062,-0.094l-0.067,-0.105l-0.062,-0.101l-0.058,-0.095l-0.06,-0.103l-0.057,-0.101l-0.057,-0.103l-0.056,-0.104l-0.054,-0.104l-0.053,-0.105l-0.052,-0.106l-0.053,-0.111l-0.049,-0.106l-0.047,-0.106l-0.049,-0.114l-0.045,-0.108l-0.043,-0.108l-0.044,-0.114l-0.043,-0.115l-0.039,-0.11l-0.04,-0.116l-0.038,-0.116l-0.035,-0.111l-0.035,-0.116l-0.034,-0.119l-0.032,-0.118l-0.029,-0.111l-0.03,-0.119l-0.029,-0.125l-0.026,-0.119l-0.025,-0.12l-0.022,-0.118l-0.022,-0.117l-0.02,-0.123l-0.019,-0.123l-0.018,-0.123l-0.015,-0.117l-0.014,-0.118l-0.013,-0.13l-0.01,-0.118l-0.009,-0.117l-0.008,-0.124l-0.006,-0.118l-0.005,-0.118l-0.004,-0.124l-0.001,-0.118l0,-0.118l0.001,-0.124l0.003,-0.118l0.004,-0.118l0.006,-0.118l0.007,-0.117l0.009,-0.118l0.01,-0.118l0.011,-0.117l0.013,-0.118l0.015,-0.123l0.017,-0.118l0.016,-0.11l0.019,-0.117l0.02,-0.117l0.021,-0.109l0.023,-0.116l0.026,-0.123l0.025,-0.109l0.026,-0.109l0.028,-0.115l0.031,-0.115l0.03,-0.108l0.033,-0.114l0.035,-0.115l0.034,-0.107l0.035,-0.107l0.036,-0.106l0.04,-0.112l0.042,-0.113l0.041,-0.106l0.042,-0.105l0.046,-0.111l0.045,-0.105l0.045,-0.104l0.047,-0.102l0.048,-0.103l0.051,-0.103l0.051,-0.103l0.055,-0.109l0.054,-0.1l0.051,-0.094l0.056,-0.101l0.058,-0.1l0.059,-0.099l0.063,-0.103l0.058,-0.093l0.059,-0.092l0.068,-0.103l0.062,-0.092l0.064,-0.093l0.069,-0.096l0.065,-0.089l0.069,-0.093l0.069,-0.09l0.073,-0.092l0.07,-0.087l0.074,-0.09l0.076,-0.09l0.07,-0.08l0.077,-0.088l0.08,-0.088l0.078,-0.083l0.079,-0.083l0.08,-0.082l0.079,-0.078l0.085,-0.084l0.083,-0.078l0.083,-0.078l0.09,-0.082l0.082,-0.073l0.088,-0.076l0.091,-0.076l0.085,-0.07l0.093,-0.075l0.09,-0.07l0.092,-0.071l0.094,-0.07l0.095,-0.069l0.098,-0.069l0.09,-0.062l0.099,-0.067l0.097,-0.063l0.096,-0.061l0.102,-0.063l0.104,-0.063l0.098,-0.057l0.1,-0.058l0.108,-0.059l0.102,-0.055l0.103,-0.054l0.104,-0.052l0.109,-0.054l0.111,-0.052l0.103,-0.048l0.106,-0.047l0.112,-0.048l0.112,-0.047l0.111,-0.044l0.109,-0.042l0.115,-0.043l0.114,-0.04l0.11,-0.038l0.113,-0.037l0.12,-0.038l0.114,-0.034l0.115,-0.034l0.121,-0.033l0.115,-0.03l0.118,-0.029l0.122,-0.028l0.116,-0.026l0.12,-0.024l0.122,-0.024l0.119,-0.022l0.124,-0.02l0.119,-0.019l0.12,-0.017l0.124,-0.016l0.12,-0.013l0.117,-0.012l0.121,-0.011l0.121,-0.01l0.121,-0.008l0.121,-0.006l0.121,-0.005l0.121,-0.003l0.118,-0.002l0.118,0l0.121,0.001Zm-0.212,3.402l-0.077,0.001l-0.077,0.002l-0.077,0.003l-0.078,0.005l-0.077,0.005l-0.078,0.006l-0.078,0.007l-0.078,0.008l-0.078,0.009l-0.078,0.01l-0.078,0.011l-0.078,0.012l-0.079,0.013l-0.078,0.014l-0.078,0.015l-0.078,0.016l-0.077,0.017l-0.077,0.018l-0.076,0.019l-0.076,0.02l-0.076,0.02l-0.075,0.022l-0.075,0.023l-0.074,0.023l-0.073,0.024l-0.074,0.025l-0.072,0.026l-0.073,0.027l-0.071,0.028l-0.072,0.028l-0.071,0.03l-0.07,0.03l-0.07,0.031l-0.069,0.032l-0.069,0.032l-0.068,0.034l-0.068,0.034l-0.067,0.035l-0.067,0.036l-0.066,0.037l-0.066,0.037l-0.065,0.038l-0.064,0.039l-0.064,0.04l-0.063,0.04l-0.063,0.041l-0.063,0.042l-0.061,0.042l-0.061,0.044l-0.061,0.043l-0.06,0.045l-0.059,0.045l-0.059,0.046l-0.058,0.047l-0.057,0.047l-0.057,0.049l-0.057,0.048l-0.055,0.049l-0.055,0.05l-0.055,0.051l-0.053,0.051l-0.054,0.052l-0.052,0.052l-0.052,0.054l-0.051,0.053l-0.05,0.054l-0.05,0.055l-0.049,0.056l-0.049,0.056l-0.048,0.056l-0.047,0.057l-0.046,0.058l-0.046,0.058l-0.045,0.059l-0.044,0.059l-0.044,0.059l-0.043,0.061l-0.042,0.06l-0.041,0.062l-0.041,0.061l-0.04,0.063l-0.039,0.062l-0.038,0.064l-0.038,0.063l-0.037,0.064l-0.036,0.065l-0.036,0.065l-0.034,0.065l-0.034,0.066l-0.033,0.066l-0.033,0.067l-0.031,0.067l-0.031,0.067l-0.03,0.068l-0.029,0.069l-0.028,0.068l-0.028,0.069l-0.026,0.07l-0.026,0.069l-0.025,0.07l-0.025,0.071l-0.023,0.07l-0.022,0.072l-0.022,0.071l-0.021,0.072l-0.02,0.072l-0.019,0.072l-0.018,0.072l-0.018,0.073l-0.016,0.074l-0.016,0.073l-0.014,0.074l-0.014,0.074l-0.013,0.074l-0.012,0.074l-0.011,0.075l-0.011,0.075l-0.009,0.075l-0.008,0.075l-0.008,0.076l-0.006,0.076l-0.006,0.076l-0.004,0.076l-0.004,0.076l-0.003,0.076l-0.002,0.077l0,0.077l0,0.077l0.001,0.077l0.002,0.077l0.003,0.078l0.004,0.077l0.005,0.078l0.006,0.077l0.007,0.078l0.008,0.078l0.009,0.078l0.01,0.078l0.011,0.078l0.012,0.078l0.013,0.079l0.014,0.078l0.016,0.078l0.016,0.078l0.017,0.077l0.018,0.077l0.018,0.076l0.02,0.076l0.021,0.076l0.021,0.075l0.023,0.075l0.023,0.074l0.025,0.074l0.025,0.073l0.026,0.073l0.026,0.072l0.028,0.072l0.029,0.071l0.029,0.071l0.03,0.07l0.031,0.07l0.032,0.069l0.033,0.069l0.033,0.068l0.035,0.068l0.035,0.067l0.035,0.067l0.037,0.066l0.037,0.066l0.038,0.065l0.039,0.064l0.04,0.064l0.04,0.064l0.041,0.062l0.042,0.063l0.043,0.061l0.043,0.062l0.044,0.06l0.045,0.06l0.045,0.059l0.046,0.059l0.047,0.058l0.047,0.058l0.048,0.057l0.049,0.056l0.049,0.055l0.05,0.055l0.05,0.055l0.052,0.054l0.051,0.053l0.053,0.052l0.053,0.052l0.054,0.051l0.054,0.051l0.055,0.049l0.055,0.05l0.056,0.048l0.056,0.048l0.057,0.047l0.058,0.046l0.058,0.046l0.059,0.045l0.059,0.044l0.06,0.044l0.06,0.043l0.061,0.042l0.061,0.041l0.062,0.041l0.062,0.04l0.063,0.039l0.063,0.039l0.064,0.037l0.064,0.037l0.064,0.036l0.065,0.036l0.066,0.034l0.065,0.034l0.067,0.033l0.066,0.033l0.067,0.031l0.068,0.031l0.068,0.03l0.068,0.029l0.069,0.028l0.069,0.028l0.069,0.027l0.07,0.025l0.07,0.026l0.07,0.024l0.071,0.023l0.071,0.023l0.071,0.021l0.072,0.021l0.072,0.02l0.072,0.019l0.073,0.018l0.073,0.018l0.073,0.016l0.073,0.016l0.074,0.015l0.074,0.013l0.074,0.013l0.075,0.012l0.074,0.011l0.075,0.011l0.075,0.009l0.076,0.008l0.075,0.008l0.076,0.006l0.076,0.006l0.076,0.005l0.076,0.003l0.077,0.003l0.077,0.002l0.076,0.001l0.077,0l0.077,-0.002l0.078,-0.002l0.077,-0.003l0.077,-0.004l0.078,-0.005l0.078,-0.006l0.078,-0.007l0.077,-0.008l0.078,-0.009l0.079,-0.01l0.078,-0.011l0.078,-0.012l0.078,-0.013l0.078,-0.014l0.079,-0.015l0.077,-0.016l0.078,-0.017l0.076,-0.018l0.077,-0.019l0.076,-0.02l0.075,-0.021l0.075,-0.021l0.075,-0.023l0.074,-0.023l0.074,-0.024l0.073,-0.025l0.073,-0.026l0.072,-0.027l0.072,-0.028l0.071,-0.029l0.071,-0.029l0.071,-0.03l0.069,-0.031l0.07,-0.032l0.068,-0.033l0.069,-0.033l0.067,-0.034l0.068,-0.035l0.066,-0.036l0.067,-0.037l0.065,-0.037l0.065,-0.038l0.065,-0.039l0.064,-0.04l0.063,-0.04l0.063,-0.041l0.062,-0.042l0.062,-0.043l0.061,-0.043l0.06,-0.044l0.06,-0.044l0.06,-0.046l0.058,-0.046l0.059,-0.046l0.057,-0.048l0.057,-0.048l0.056,-0.048l0.056,-0.05l0.055,-0.05l0.054,-0.05l0.054,-0.051l0.053,-0.052l0.053,-0.053l0.051,-0.053l0.052,-0.053l0.05,-0.055l0.05,-0.054l0.049,-0.056l0.048,-0.056l0.048,-0.056l0.047,-0.057l0.047,-0.058l0.045,-0.058l0.045,-0.059l0.045,-0.059l0.043,-0.06l0.043,-0.06l0.042,-0.061l0.042,-0.061l0.04,-0.062l0.04,-0.062l0.039,-0.063l0.039,-0.063l0.038,-0.063l0.037,-0.064l0.036,-0.065l0.035,-0.065l0.035,-0.065l0.034,-0.066l0.033,-0.066l0.032,-0.067l0.032,-0.067l0.03,-0.068l0.03,-0.068l0.029,-0.068l0.029,-0.068l0.027,-0.069l0.027,-0.07l0.026,-0.069l0.025,-0.071l0.024,-0.07l0.023,-0.071l0.023,-0.071l0.022,-0.071l0.02,-0.072l0.02,-0.072l0.02,-0.072l0.018,-0.073l0.017,-0.073l0.017,-0.073l0.015,-0.073l0.015,-0.074l0.014,-0.074l0.013,-0.074l0.012,-0.074l0.011,-0.075l0.01,-0.075l0.009,-0.075l0.009,-0.076l0.007,-0.075l0.007,-0.076l0.005,-0.076l0.005,-0.076l0.004,-0.076l0.002,-0.077l0.002,-0.076l0.001,-0.077l0,-0.077l-0.001,-0.077l-0.002,-0.077l-0.003,-0.078l-0.004,-0.077l-0.005,-0.078l-0.006,-0.078l-0.007,-0.077l-0.008,-0.078l-0.009,-0.078l-0.01,-0.078l-0.012,-0.079l-0.012,-0.078l-0.013,-0.078l-0.014,-0.078l-0.015,-0.078l-0.016,-0.078l-0.017,-0.077l-0.018,-0.077l-0.019,-0.077l-0.02,-0.076l-0.02,-0.075l-0.022,-0.075l-0.022,-0.075l-0.024,-0.074l-0.024,-0.074l-0.025,-0.073l-0.026,-0.073l-0.027,-0.072l-0.028,-0.072l-0.028,-0.071l-0.029,-0.071l-0.031,-0.07l-0.031,-0.07l-0.032,-0.069l-0.032,-0.069l-0.034,-0.069l-0.034,-0.067l-0.035,-0.067l-0.036,-0.067l-0.036,-0.066l-0.038,-0.066l-0.038,-0.065l-0.039,-0.065l-0.039,-0.063l-0.041,-0.064l-0.041,-0.063l-0.042,-0.062l-0.042,-0.062l-0.043,-0.061l-0.044,-0.06l-0.045,-0.06l-0.045,-0.06l-0.046,-0.058l-0.047,-0.058l-0.047,-0.058l-0.048,-0.057l-0.049,-0.056l-0.049,-0.056l-0.05,-0.055l-0.051,-0.054l-0.051,-0.054l-0.052,-0.053l-0.052,-0.052l-0.053,-0.052l-0.054,-0.051l-0.054,-0.051l-0.055,-0.05l-0.055,-0.049l-0.056,-0.048l-0.057,-0.048l-0.057,-0.047l-0.058,-0.046l-0.058,-0.046l-0.058,-0.045l-0.06,-0.044l-0.059,-0.044l-0.061,-0.043l-0.06,-0.042l-0.062,-0.041l-0.061,-0.041l-0.063,-0.04l-0.062,-0.039l-0.063,-0.039l-0.064,-0.037l-0.064,-0.037l-0.065,-0.037l-0.065,-0.035l-0.065,-0.035l-0.066,-0.034l-0.066,-0.033l-0.067,-0.032l-0.067,-0.032l-0.067,-0.03l-0.068,-0.03l-0.068,-0.029l-0.069,-0.029l-0.069,-0.027l-0.069,-0.027l-0.07,-0.026l-0.07,-0.025l-0.071,-0.024l-0.07,-0.023l-0.071,-0.023l-0.072,-0.021l-0.071,-0.021l-0.072,-0.02l-0.073,-0.019l-0.072,-0.019l-0.073,-0.017l-0.073,-0.016l-0.074,-0.016l-0.073,-0.015l-0.074,-0.014l-0.075,-0.013l-0.074,-0.012l-0.075,-0.011l-0.075,-0.01l-0.075,-0.009l-0.075,-0.009l-0.076,-0.007l-0.075,-0.007l-0.076,-0.005l-0.077,-0.005l-0.076,-0.003l-0.076,-0.003l-0.077,-0.002l-0.077,-0.001l-0.077,0Z" style="fill:#eff0f0;"/><path d="M55.643,17.592c2.68,-0.501 5.263,1.268 5.764,3.948c0.502,2.68 -1.268,5.264 -3.948,5.765c-2.68,0.501 -5.263,-1.268 -5.764,-3.948c-0.502,-2.681 1.267,-5.264 3.948,-5.765Z" style="fill:#eff0f0;"/><path d="M56.698,14.105l0.105,0.003l0.103,0.004l0.103,0.005l0.102,0.006l0.103,0.007l0.106,0.009l0.103,0.011l0.099,0.011l0.105,0.013l0.113,0.015l0.19,0.03l0.2,0.036l0.2,0.041l0.2,0.046l0.197,0.051l0.194,0.055l0.193,0.06l0.192,0.065l0.189,0.068l0.188,0.074l0.184,0.077l0.182,0.082l0.183,0.087l0.177,0.09l0.176,0.095l0.175,0.099l0.17,0.102l0.169,0.107l0.165,0.111l0.164,0.115l0.161,0.119l0.158,0.122l0.156,0.127l0.15,0.129l0.149,0.134l0.148,0.139l0.14,0.139l0.139,0.144l0.138,0.15l0.134,0.152l0.128,0.154l0.124,0.157l0.123,0.162l0.118,0.165l0.115,0.169l0.11,0.171l0.107,0.174l0.097,0.169l0.056,0.101l0.047,0.089l0.048,0.091l0.049,0.097l0.045,0.092l0.041,0.085l0.045,0.099l0.044,0.099l0.037,0.087l0.042,0.101l0.04,0.099l0.036,0.094l0.035,0.095l0.037,0.101l0.034,0.102l0.032,0.096l0.032,0.102l0.031,0.102l0.029,0.102l0.029,0.104l0.027,0.103l0.025,0.103l0.022,0.097l0.024,0.104l0.022,0.11l0.02,0.103l0.02,0.108l0.018,0.108l0.015,0.101l0.014,0.101l0.015,0.108l0.012,0.109l0.01,0.101l0.01,0.102l0.008,0.109l0.007,0.109l0.006,0.102l0.004,0.109l0.002,0.103l0.002,0.102l0,0.103l-0.001,0.103l-0.002,0.109l-0.004,0.103l-0.005,0.102l-0.006,0.103l-0.008,0.102l-0.009,0.11l-0.011,0.102l-0.01,0.096l-0.013,0.103l-0.015,0.112l-0.03,0.194l-0.036,0.2l-0.041,0.2l-0.047,0.199l-0.051,0.198l-0.055,0.194l-0.06,0.193l-0.065,0.192l-0.068,0.188l-0.073,0.186l-0.077,0.185l-0.083,0.185l-0.087,0.181l-0.09,0.178l-0.095,0.177l-0.099,0.174l-0.102,0.17l-0.107,0.168l-0.111,0.166l-0.115,0.164l-0.117,0.159l-0.124,0.16l-0.127,0.155l-0.128,0.15l-0.134,0.15l-0.14,0.148l-0.139,0.141l-0.142,0.137l-0.151,0.139l-0.152,0.132l-0.154,0.129l-0.159,0.126l-0.162,0.122l-0.164,0.117l-0.169,0.116l-0.172,0.11l-0.173,0.106l-0.171,0.099l-0.097,0.053l-0.089,0.048l-0.095,0.05l-0.09,0.045l-0.091,0.045l-0.097,0.046l-0.094,0.043l-0.092,0.041l-0.099,0.043l-0.093,0.038l-0.097,0.039l-0.099,0.038l-0.098,0.036l-0.098,0.036l-0.097,0.033l-0.102,0.034l-0.102,0.032l-0.1,0.029l-0.097,0.029l-0.105,0.028l-0.107,0.028l-0.1,0.025l-0.103,0.024l-0.107,0.023l-0.101,0.021l-0.105,0.021l-0.109,0.019l-0.101,0.017l-0.105,0.016l-0.107,0.016l-0.108,0.013l-0.105,0.012l-0.102,0.011l-0.105,0.01l-0.109,0.008l-0.102,0.006l-0.106,0.006l-0.106,0.004l-0.102,0.003l-0.106,0.001l-0.106,0.001l-0.103,-0.002l-0.102,-0.002l-0.106,-0.004l-0.103,-0.005l-0.106,-0.006l-0.103,-0.008l-0.099,-0.008l-0.105,-0.011l-0.103,-0.011l-0.099,-0.012l-0.115,-0.016l-0.192,-0.03l-0.2,-0.036l-0.202,-0.041l-0.196,-0.046l-0.197,-0.051l-0.197,-0.056l-0.191,-0.059l-0.191,-0.064l-0.191,-0.07l-0.187,-0.073l-0.184,-0.077l-0.183,-0.082l-0.182,-0.087l-0.176,-0.09l-0.176,-0.094l-0.176,-0.1l-0.17,-0.103l-0.168,-0.106l-0.169,-0.113l-0.163,-0.114l-0.158,-0.117l-0.159,-0.123l-0.156,-0.127l-0.152,-0.131l-0.147,-0.132l-0.145,-0.136l-0.145,-0.144l-0.138,-0.143l-0.136,-0.147l-0.134,-0.154l-0.129,-0.154l-0.125,-0.158l-0.122,-0.161l-0.12,-0.168l-0.113,-0.167l-0.109,-0.168l-0.108,-0.176l-0.099,-0.173l-0.053,-0.095l-0.05,-0.092l-0.049,-0.095l-0.043,-0.086l-0.045,-0.092l-0.046,-0.097l-0.043,-0.093l-0.042,-0.094l-0.042,-0.098l-0.039,-0.093l-0.038,-0.095l-0.038,-0.1l-0.038,-0.102l-0.034,-0.095l-0.032,-0.094l-0.036,-0.109l-0.032,-0.102l-0.029,-0.096l-0.028,-0.097l-0.028,-0.102l-0.029,-0.109l-0.025,-0.104l-0.024,-0.104l-0.023,-0.103l-0.02,-0.097l-0.022,-0.111l-0.019,-0.108l-0.017,-0.101l-0.016,-0.107l-0.015,-0.101l-0.014,-0.108l-0.012,-0.108l-0.011,-0.102l-0.01,-0.109l-0.008,-0.109l-0.006,-0.095l-0.006,-0.109l-0.004,-0.109l-0.002,-0.096l-0.002,-0.11l0,-0.109l0.001,-0.096l0.002,-0.102l0.004,-0.11l0.005,-0.103l0.007,-0.109l0.008,-0.102l0.008,-0.096l0.01,-0.103l0.011,-0.102l0.013,-0.103l0.015,-0.116l0.03,-0.19l0.036,-0.2l0.042,-0.203l0.046,-0.196l0.05,-0.195l0.056,-0.197l0.06,-0.193l0.063,-0.189l0.07,-0.191l0.074,-0.19l0.077,-0.181l0.081,-0.184l0.088,-0.183l0.088,-0.174l0.097,-0.18l0.099,-0.174l0.102,-0.17l0.106,-0.167l0.111,-0.167l0.116,-0.164l0.119,-0.162l0.122,-0.157l0.126,-0.154l0.131,-0.154l0.133,-0.148l0.137,-0.144l0.14,-0.143l0.146,-0.141l0.148,-0.135l0.15,-0.132l0.157,-0.13l0.159,-0.126l0.159,-0.121l0.167,-0.119l0.168,-0.115l0.17,-0.11l0.176,-0.107l0.167,-0.096l0.1,-0.056l0.091,-0.049l0.09,-0.047l0.093,-0.046l0.093,-0.046l0.092,-0.044l0.097,-0.044l0.095,-0.042l0.093,-0.04l0.096,-0.04l0.096,-0.039l0.1,-0.038l0.097,-0.036l0.098,-0.035l0.102,-0.035l0.098,-0.033l0.099,-0.031l0.103,-0.031l0.102,-0.029l0.099,-0.027l0.103,-0.027l0.108,-0.027l0.101,-0.023l0.103,-0.023l0.106,-0.022l0.104,-0.02l0.106,-0.019l0.106,-0.018l0.104,-0.016l0.105,-0.015l0.105,-0.013l0.104,-0.012l0.109,-0.011l0.106,-0.01l0.101,-0.008l0.106,-0.007l0.106,-0.005l0.105,-0.004l0.103,-0.003l0.106,-0.002l0.106,0l0.103,0.001Zm-0.182,3.402l-0.062,0.001l-0.062,0.002l-0.062,0.002l-0.062,0.004l-0.062,0.004l-0.062,0.004l-0.063,0.006l-0.062,0.006l-0.063,0.008l-0.062,0.008l-0.063,0.009l-0.063,0.009l-0.063,0.011l-0.062,0.011l-0.063,0.012l-0.062,0.013l-0.062,0.014l-0.062,0.014l-0.061,0.015l-0.061,0.016l-0.061,0.017l-0.06,0.017l-0.06,0.018l-0.059,0.019l-0.059,0.019l-0.059,0.02l-0.058,0.021l-0.058,0.022l-0.058,0.022l-0.057,0.023l-0.057,0.023l-0.056,0.025l-0.056,0.024l-0.056,0.026l-0.055,0.026l-0.055,0.027l-0.054,0.027l-0.054,0.029l-0.053,0.028l-0.053,0.03l-0.105,0.06l-0.103,0.063l-0.101,0.065l-0.1,0.068l-0.097,0.07l-0.096,0.072l-0.094,0.074l-0.091,0.077l-0.09,0.078l-0.088,0.081l-0.086,0.083l-0.083,0.084l-0.082,0.087l-0.079,0.088l-0.077,0.09l-0.075,0.092l-0.073,0.094l-0.07,0.095l-0.068,0.097l-0.066,0.099l-0.064,0.1l-0.061,0.102l-0.058,0.103l-0.057,0.104l-0.053,0.106l-0.052,0.108l-0.048,0.108l-0.046,0.11l-0.044,0.111l-0.041,0.112l-0.038,0.113l-0.035,0.114l-0.033,0.115l-0.03,0.117l-0.027,0.117l-0.024,0.118l-0.022,0.118l-0.018,0.12l-0.008,0.06l-0.008,0.06l-0.007,0.061l-0.006,0.06l-0.005,0.061l-0.004,0.061l-0.004,0.061l-0.003,0.061l-0.002,0.062l-0.002,0.061l0,0.062l0,0.061l0.001,0.062l0.001,0.062l0.003,0.062l0.003,0.062l0.004,0.062l0.005,0.063l0.005,0.062l0.007,0.063l0.007,0.062l0.008,0.063l0.009,0.062l0.01,0.063l0.01,0.063l0.012,0.063l0.012,0.062l0.013,0.063l0.013,0.062l0.015,0.061l0.015,0.062l0.016,0.06l0.016,0.061l0.017,0.06l0.019,0.06l0.018,0.06l0.02,0.059l0.02,0.058l0.021,0.059l0.021,0.058l0.022,0.057l0.023,0.057l0.024,0.057l0.024,0.057l0.025,0.056l0.025,0.055l0.027,0.055l0.026,0.055l0.028,0.054l0.028,0.054l0.029,0.054l0.029,0.053l0.061,0.105l0.063,0.103l0.065,0.101l0.067,0.099l0.07,0.098l0.073,0.095l0.074,0.094l0.076,0.092l0.079,0.09l0.08,0.087l0.083,0.086l0.085,0.084l0.086,0.081l0.089,0.079l0.09,0.078l0.092,0.074l0.093,0.073l0.096,0.071l0.097,0.068l0.098,0.066l0.101,0.063l0.101,0.061l0.103,0.059l0.105,0.056l0.106,0.054l0.107,0.051l0.109,0.049l0.109,0.046l0.111,0.043l0.112,0.041l0.113,0.038l0.115,0.036l0.115,0.032l0.116,0.03l0.117,0.027l0.118,0.025l0.119,0.021l0.12,0.019l0.06,0.008l0.06,0.007l0.06,0.007l0.061,0.006l0.061,0.005l0.06,0.005l0.062,0.003l0.061,0.003l0.061,0.003l0.062,0.001l0.061,0.001l0.062,0l0.062,-0.001l0.062,-0.002l0.062,-0.002l0.062,-0.004l0.062,-0.004l0.062,-0.004l0.063,-0.006l0.062,-0.007l0.063,-0.007l0.062,-0.008l0.063,-0.009l0.063,-0.009l0.062,-0.011l0.063,-0.011l0.063,-0.012l0.062,-0.013l0.062,-0.014l0.062,-0.014l0.061,-0.015l0.061,-0.016l0.061,-0.017l0.06,-0.017l0.06,-0.018l0.059,-0.019l0.059,-0.019l0.059,-0.02l0.058,-0.021l0.058,-0.022l0.058,-0.022l0.057,-0.023l0.057,-0.023l0.056,-0.025l0.056,-0.025l0.056,-0.025l0.055,-0.026l0.055,-0.027l0.054,-0.028l0.054,-0.028l0.053,-0.028l0.053,-0.03l0.105,-0.06l0.103,-0.063l0.101,-0.065l0.1,-0.068l0.097,-0.07l0.096,-0.072l0.094,-0.074l0.091,-0.077l0.09,-0.079l0.088,-0.08l0.085,-0.083l0.084,-0.084l0.082,-0.087l0.079,-0.088l0.077,-0.09l0.075,-0.092l0.073,-0.094l0.07,-0.095l0.068,-0.097l0.066,-0.099l0.064,-0.1l0.061,-0.102l0.058,-0.103l0.057,-0.104l0.053,-0.106l0.051,-0.108l0.049,-0.108l0.046,-0.11l0.044,-0.111l0.04,-0.112l0.039,-0.113l0.035,-0.114l0.033,-0.116l0.03,-0.116l0.027,-0.117l0.024,-0.118l0.022,-0.119l0.018,-0.119l0.008,-0.06l0.008,-0.06l0.006,-0.061l0.006,-0.06l0.006,-0.061l0.004,-0.061l0.004,-0.061l0.003,-0.061l0.002,-0.062l0.002,-0.061l0,-0.062l0,-0.061l-0.001,-0.062l-0.001,-0.062l-0.003,-0.062l-0.003,-0.062l-0.004,-0.063l-0.005,-0.062l-0.006,-0.062l-0.006,-0.063l-0.007,-0.062l-0.008,-0.063l-0.009,-0.063l-0.01,-0.062l-0.01,-0.063l-0.012,-0.063l-0.012,-0.062l-0.013,-0.063l-0.013,-0.062l-0.015,-0.061l-0.015,-0.062l-0.016,-0.061l-0.016,-0.06l-0.018,-0.06l-0.018,-0.06l-0.018,-0.06l-0.02,-0.059l-0.02,-0.058l-0.021,-0.059l-0.021,-0.058l-0.023,-0.057l-0.022,-0.058l-0.024,-0.056l-0.024,-0.057l-0.025,-0.056l-0.026,-0.055l-0.026,-0.055l-0.027,-0.055l-0.027,-0.055l-0.028,-0.053l-0.029,-0.054l-0.029,-0.053l-0.061,-0.105l-0.063,-0.103l-0.065,-0.101l-0.068,-0.099l-0.07,-0.098l-0.072,-0.095l-0.074,-0.094l-0.076,-0.092l-0.079,-0.09l-0.081,-0.087l-0.082,-0.086l-0.085,-0.084l-0.086,-0.081l-0.089,-0.079l-0.09,-0.078l-0.092,-0.075l-0.093,-0.072l-0.096,-0.071l-0.097,-0.068l-0.098,-0.066l-0.101,-0.063l-0.101,-0.061l-0.103,-0.059l-0.105,-0.056l-0.106,-0.054l-0.107,-0.051l-0.109,-0.049l-0.109,-0.046l-0.111,-0.043l-0.112,-0.041l-0.114,-0.038l-0.114,-0.036l-0.115,-0.032l-0.116,-0.03l-0.117,-0.027l-0.118,-0.025l-0.119,-0.021l-0.12,-0.019l-0.06,-0.008l-0.06,-0.007l-0.06,-0.007l-0.061,-0.006l-0.061,-0.005l-0.061,-0.005l-0.061,-0.004l-0.061,-0.002l-0.061,-0.003l-0.062,-0.001l-0.061,-0.001l-0.062,0Z" style="fill:#eff0f0;"/><path d="M107.669,50.767c6.428,-1.202 12.622,3.04 13.824,9.468c1.202,6.427 -3.04,12.622 -9.468,13.824c-6.427,1.202 -12.622,-3.04 -13.824,-9.468c-1.202,-6.427 3.041,-12.622 9.468,-13.824Z" style="fill:#eff0f0;"/><path d="M110.117,47.163l0.19,0.004l0.191,0.007l0.188,0.009l0.189,0.012l0.188,0.014l0.188,0.016l0.189,0.018l0.185,0.021l0.186,0.023l0.187,0.025l0.186,0.028l0.183,0.03l0.184,0.032l0.185,0.034l0.18,0.036l0.184,0.039l0.182,0.041l0.179,0.043l0.181,0.046l0.178,0.047l0.178,0.049l0.177,0.051l0.178,0.054l0.177,0.056l0.173,0.058l0.175,0.06l0.175,0.062l0.173,0.065l0.171,0.065l0.168,0.067l0.171,0.071l0.17,0.073l0.167,0.073l0.167,0.076l0.166,0.078l0.165,0.08l0.163,0.082l0.162,0.083l0.162,0.086l0.161,0.088l0.161,0.09l0.157,0.09l0.158,0.094l0.157,0.096l0.155,0.096l0.152,0.099l0.152,0.099l0.153,0.103l0.15,0.105l0.148,0.105l0.149,0.108l0.146,0.11l0.144,0.11l0.144,0.113l0.143,0.115l0.14,0.117l0.141,0.118l0.138,0.12l0.137,0.121l0.135,0.124l0.134,0.124l0.132,0.126l0.132,0.129l0.131,0.13l0.126,0.13l0.127,0.133l0.126,0.136l0.124,0.136l0.122,0.138l0.119,0.137l0.119,0.142l0.118,0.143l0.115,0.143l0.114,0.146l0.112,0.147l0.111,0.148l0.109,0.15l0.107,0.151l0.106,0.155l0.103,0.153l0.101,0.154l0.101,0.159l0.099,0.16l0.096,0.158l0.094,0.161l0.093,0.163l0.091,0.165l0.088,0.165l0.087,0.166l0.086,0.17l0.082,0.169l0.08,0.168l0.08,0.174l0.077,0.171l0.075,0.175l0.074,0.179l0.069,0.174l0.069,0.178l0.066,0.179l0.065,0.18l0.063,0.183l0.059,0.181l0.058,0.182l0.056,0.187l0.053,0.186l0.051,0.185l0.049,0.188l0.047,0.189l0.044,0.19l0.042,0.193l0.04,0.191l0.037,0.191l0.035,0.193l0.032,0.192l0.03,0.195l0.027,0.192l0.025,0.192l0.022,0.196l0.02,0.189l0.017,0.193l0.016,0.196l0.012,0.192l0.01,0.189l0.007,0.189l0.005,0.193l0.003,0.192l0.001,0.192l-0.003,0.193l-0.004,0.185l-0.007,0.188l-0.009,0.195l-0.012,0.188l-0.013,0.184l-0.016,0.188l-0.019,0.191l-0.021,0.187l-0.023,0.183l-0.025,0.189l-0.028,0.186l-0.03,0.182l-0.031,0.182l-0.035,0.185l-0.037,0.184l-0.038,0.18l-0.041,0.183l-0.043,0.18l-0.045,0.179l-0.048,0.181l-0.049,0.179l-0.052,0.177l-0.053,0.176l-0.056,0.176l-0.058,0.176l-0.059,0.172l-0.062,0.174l-0.064,0.172l-0.067,0.174l-0.069,0.172l-0.069,0.167l-0.072,0.168l-0.074,0.17l-0.076,0.165l-0.077,0.166l-0.082,0.167l-0.081,0.163l-0.084,0.162l-0.085,0.162l-0.088,0.161l-0.088,0.157l-0.091,0.159l-0.096,0.16l-0.094,0.154l-0.097,0.156l-0.1,0.155l-0.097,0.148l-0.103,0.153l-0.106,0.153l-0.105,0.147l-0.109,0.15l-0.11,0.146l-0.108,0.141l-0.113,0.144l-0.116,0.145l-0.117,0.14l-0.118,0.141l-0.121,0.139l-0.119,0.134l-0.124,0.136l-0.126,0.136l-0.126,0.132l-0.127,0.13l-0.129,0.13l-0.133,0.129l-0.133,0.127l-0.134,0.124l-0.135,0.123l-0.14,0.124l-0.139,0.12l-0.139,0.118l-0.144,0.118l-0.145,0.116l-0.144,0.113l-0.147,0.112l-0.149,0.111l-0.149,0.108l-0.151,0.108l-0.154,0.106l-0.154,0.103l-0.156,0.102l-0.156,0.1l-0.159,0.098l-0.16,0.096l-0.161,0.095l-0.164,0.093l-0.163,0.09l-0.165,0.089l-0.169,0.088l-0.167,0.084l-0.167,0.082l-0.172,0.082l-0.172,0.079l-0.174,0.077l-0.174,0.075l-0.174,0.072l-0.178,0.071l-0.179,0.069l-0.178,0.067l-0.18,0.064l-0.181,0.062l-0.183,0.06l-0.184,0.058l-0.185,0.056l-0.184,0.053l-0.188,0.051l-0.188,0.049l-0.188,0.046l-0.19,0.045l-0.19,0.042l-0.193,0.04l-0.194,0.037l-0.19,0.034l-0.194,0.033l-0.194,0.03l-0.192,0.027l-0.194,0.025l-0.192,0.022l-0.193,0.02l-0.192,0.017l-0.193,0.015l-0.191,0.012l-0.192,0.011l-0.193,0.007l-0.189,0.005l-0.192,0.003l-0.192,0l-0.189,-0.002l-0.19,-0.004l-0.19,-0.007l-0.189,-0.009l-0.189,-0.012l-0.188,-0.014l-0.188,-0.016l-0.188,-0.018l-0.185,-0.021l-0.187,-0.023l-0.186,-0.025l-0.185,-0.028l-0.185,-0.03l-0.185,-0.032l-0.183,-0.034l-0.181,-0.036l-0.182,-0.039l-0.183,-0.041l-0.182,-0.044l-0.179,-0.045l-0.177,-0.047l-0.179,-0.049l-0.178,-0.052l-0.177,-0.053l-0.176,-0.056l-0.174,-0.058l-0.175,-0.06l-0.174,-0.062l-0.174,-0.065l-0.17,-0.065l-0.168,-0.067l-0.17,-0.07l-0.172,-0.073l-0.168,-0.075l-0.166,-0.075l-0.166,-0.078l-0.165,-0.08l-0.163,-0.082l-0.162,-0.083l-0.162,-0.086l-0.161,-0.088l-0.16,-0.09l-0.158,-0.091l-0.158,-0.093l-0.157,-0.096l-0.154,-0.096l-0.153,-0.099l-0.152,-0.099l-0.152,-0.104l-0.15,-0.104l-0.149,-0.105l-0.148,-0.108l-0.146,-0.11l-0.145,-0.11l-0.143,-0.113l-0.143,-0.115l-0.141,-0.117l-0.141,-0.118l-0.137,-0.119l-0.137,-0.122l-0.137,-0.125l-0.133,-0.123l-0.132,-0.126l-0.132,-0.129l-0.13,-0.13l-0.127,-0.13l-0.127,-0.133l-0.126,-0.136l-0.124,-0.136l-0.121,-0.137l-0.119,-0.138l-0.121,-0.143l-0.117,-0.143l-0.115,-0.142l-0.114,-0.146l-0.112,-0.147l-0.111,-0.148l-0.109,-0.15l-0.107,-0.151l-0.106,-0.155l-0.103,-0.154l-0.101,-0.153l-0.101,-0.159l-0.099,-0.16l-0.095,-0.158l-0.095,-0.161l-0.092,-0.163l-0.092,-0.165l-0.088,-0.165l-0.087,-0.166l-0.086,-0.17l-0.082,-0.169l-0.08,-0.168l-0.08,-0.174l-0.076,-0.171l-0.076,-0.175l-0.074,-0.179l-0.069,-0.174l-0.069,-0.178l-0.066,-0.179l-0.065,-0.18l-0.062,-0.183l-0.06,-0.181l-0.057,-0.183l-0.057,-0.186l-0.053,-0.186l-0.051,-0.185l-0.049,-0.188l-0.046,-0.189l-0.045,-0.19l-0.042,-0.193l-0.04,-0.191l-0.036,-0.191l-0.035,-0.193l-0.032,-0.192l-0.031,-0.195l-0.027,-0.195l-0.024,-0.189l-0.023,-0.193l-0.02,-0.192l-0.017,-0.193l-0.015,-0.196l-0.013,-0.192l-0.009,-0.189l-0.008,-0.189l-0.005,-0.193l-0.003,-0.192l0,-0.192l0.002,-0.193l0.004,-0.185l0.007,-0.188l0.009,-0.195l0.012,-0.188l0.014,-0.184l0.016,-0.188l0.018,-0.191l0.021,-0.187l0.023,-0.183l0.026,-0.189l0.028,-0.186l0.029,-0.182l0.032,-0.182l0.034,-0.185l0.037,-0.184l0.038,-0.18l0.041,-0.183l0.043,-0.18l0.045,-0.179l0.048,-0.182l0.05,-0.178l0.051,-0.176l0.054,-0.177l0.055,-0.176l0.059,-0.176l0.059,-0.172l0.062,-0.174l0.064,-0.172l0.066,-0.174l0.069,-0.172l0.069,-0.168l0.072,-0.167l0.074,-0.17l0.076,-0.165l0.078,-0.166l0.081,-0.167l0.081,-0.163l0.084,-0.162l0.086,-0.162l0.087,-0.161l0.089,-0.157l0.091,-0.159l0.095,-0.16l0.094,-0.154l0.097,-0.156l0.1,-0.155l0.098,-0.148l0.103,-0.153l0.105,-0.153l0.105,-0.147l0.109,-0.15l0.11,-0.146l0.109,-0.142l0.112,-0.143l0.117,-0.145l0.116,-0.14l0.118,-0.141l0.121,-0.139l0.119,-0.134l0.124,-0.137l0.126,-0.135l0.126,-0.132l0.127,-0.13l0.13,-0.13l0.132,-0.129l0.133,-0.127l0.134,-0.124l0.136,-0.123l0.139,-0.124l0.139,-0.12l0.139,-0.118l0.144,-0.118l0.145,-0.116l0.145,-0.113l0.146,-0.112l0.149,-0.111l0.149,-0.108l0.151,-0.108l0.155,-0.106l0.154,-0.103l0.155,-0.102l0.156,-0.1l0.16,-0.098l0.159,-0.096l0.161,-0.095l0.165,-0.093l0.164,-0.091l0.164,-0.088l0.167,-0.088l0.168,-0.084l0.167,-0.082l0.172,-0.082l0.173,-0.079l0.173,-0.077l0.175,-0.075l0.173,-0.072l0.178,-0.072l0.179,-0.068l0.179,-0.067l0.179,-0.064l0.182,-0.062l0.183,-0.06l0.183,-0.058l0.185,-0.056l0.184,-0.053l0.188,-0.051l0.188,-0.049l0.188,-0.046l0.19,-0.045l0.19,-0.042l0.193,-0.04l0.194,-0.037l0.192,-0.035l0.193,-0.032l0.192,-0.03l0.193,-0.027l0.194,-0.025l0.193,-0.022l0.192,-0.02l0.192,-0.017l0.193,-0.015l0.191,-0.013l0.192,-0.01l0.193,-0.007l0.191,-0.005l0.19,-0.003l0.191,0l0.19,0.002Zm-0.353,3.401l-0.149,0.002l-0.148,0.004l-0.149,0.006l-0.149,0.008l-0.149,0.009l-0.15,0.012l-0.149,0.013l-0.15,0.016l-0.15,0.017l-0.15,0.019l-0.15,0.022l-0.151,0.023l-0.15,0.025l-0.151,0.027l-0.15,0.029l-0.15,0.031l-0.148,0.033l-0.148,0.034l-0.147,0.037l-0.146,0.038l-0.145,0.039l-0.145,0.042l-0.143,0.043l-0.143,0.045l-0.142,0.047l-0.14,0.048l-0.14,0.05l-0.139,0.052l-0.138,0.053l-0.137,0.055l-0.137,0.056l-0.135,0.058l-0.134,0.06l-0.133,0.061l-0.133,0.063l-0.131,0.064l-0.13,0.066l-0.129,0.068l-0.129,0.068l-0.127,0.071l-0.126,0.072l-0.125,0.073l-0.124,0.075l-0.123,0.076l-0.122,0.077l-0.121,0.079l-0.12,0.081l-0.118,0.082l-0.118,0.083l-0.116,0.084l-0.115,0.086l-0.114,0.087l-0.113,0.089l-0.112,0.089l-0.111,0.092l-0.109,0.092l-0.108,0.093l-0.107,0.095l-0.106,0.096l-0.105,0.098l-0.103,0.098l-0.102,0.1l-0.101,0.1l-0.1,0.102l-0.098,0.104l-0.097,0.104l-0.096,0.105l-0.094,0.107l-0.093,0.107l-0.092,0.109l-0.091,0.11l-0.089,0.111l-0.088,0.111l-0.086,0.113l-0.086,0.114l-0.083,0.115l-0.083,0.116l-0.081,0.117l-0.08,0.117l-0.078,0.119l-0.077,0.12l-0.075,0.12l-0.074,0.122l-0.072,0.122l-0.071,0.123l-0.07,0.124l-0.068,0.125l-0.067,0.126l-0.065,0.127l-0.064,0.127l-0.062,0.128l-0.06,0.129l-0.059,0.13l-0.058,0.13l-0.056,0.132l-0.054,0.132l-0.053,0.132l-0.052,0.134l-0.049,0.134l-0.049,0.134l-0.046,0.136l-0.045,0.136l-0.043,0.136l-0.042,0.138l-0.04,0.138l-0.038,0.138l-0.037,0.139l-0.035,0.14l-0.034,0.14l-0.031,0.14l-0.03,0.142l-0.029,0.141l-0.026,0.143l-0.025,0.142l-0.023,0.143l-0.022,0.144l-0.019,0.144l-0.018,0.145l-0.016,0.144l-0.015,0.146l-0.012,0.145l-0.011,0.146l-0.009,0.147l-0.007,0.146l-0.005,0.148l-0.004,0.147l-0.001,0.148l0,0.148l0.002,0.148l0.004,0.148l0.006,0.149l0.008,0.149l0.009,0.149l0.012,0.15l0.013,0.149l0.016,0.15l0.017,0.15l0.019,0.15l0.022,0.151l0.023,0.15l0.025,0.15l0.027,0.151l0.029,0.15l0.031,0.15l0.033,0.148l0.035,0.148l0.036,0.147l0.038,0.146l0.04,0.145l0.041,0.145l0.043,0.143l0.045,0.143l0.047,0.142l0.048,0.14l0.05,0.14l0.052,0.139l0.053,0.138l0.055,0.138l0.056,0.136l0.058,0.135l0.06,0.134l0.061,0.133l0.063,0.133l0.064,0.131l0.066,0.13l0.068,0.13l0.069,0.128l0.07,0.127l0.072,0.126l0.073,0.125l0.075,0.124l0.076,0.123l0.078,0.122l0.079,0.121l0.08,0.12l0.082,0.118l0.083,0.118l0.084,0.116l0.086,0.115l0.087,0.114l0.089,0.113l0.09,0.112l0.091,0.111l0.092,0.109l0.094,0.108l0.094,0.107l0.096,0.106l0.098,0.105l0.098,0.103l0.1,0.102l0.101,0.101l0.102,0.1l0.103,0.098l0.104,0.097l0.105,0.096l0.107,0.094l0.107,0.094l0.109,0.091l0.11,0.091l0.111,0.089l0.112,0.088l0.112,0.087l0.114,0.085l0.115,0.084l0.116,0.082l0.117,0.081l0.117,0.08l0.119,0.078l0.12,0.077l0.12,0.075l0.122,0.074l0.122,0.073l0.123,0.071l0.125,0.069l0.124,0.068l0.126,0.067l0.127,0.065l0.127,0.064l0.128,0.062l0.129,0.06l0.13,0.06l0.131,0.057l0.131,0.056l0.132,0.055l0.132,0.052l0.134,0.052l0.134,0.05l0.135,0.048l0.135,0.046l0.136,0.045l0.137,0.043l0.137,0.042l0.138,0.04l0.138,0.039l0.139,0.036l0.14,0.035l0.14,0.034l0.141,0.031l0.141,0.03l0.142,0.029l0.142,0.026l0.142,0.025l0.144,0.023l0.143,0.022l0.144,0.019l0.145,0.018l0.145,0.016l0.145,0.015l0.145,0.012l0.147,0.011l0.146,0.009l0.147,0.007l0.147,0.005l0.147,0.004l0.148,0.001l0.148,0l0.148,-0.002l0.149,-0.004l0.148,-0.006l0.149,-0.008l0.149,-0.009l0.15,-0.012l0.15,-0.013l0.149,-0.016l0.15,-0.017l0.15,-0.019l0.151,-0.022l0.15,-0.023l0.151,-0.025l0.15,-0.027l0.15,-0.029l0.15,-0.031l0.148,-0.033l0.148,-0.034l0.147,-0.037l0.146,-0.038l0.146,-0.039l0.144,-0.042l0.143,-0.043l0.143,-0.045l0.142,-0.047l0.141,-0.048l0.14,-0.05l0.139,-0.052l0.138,-0.053l0.137,-0.055l0.136,-0.056l0.135,-0.058l0.134,-0.06l0.134,-0.061l0.132,-0.063l0.131,-0.064l0.13,-0.066l0.13,-0.068l0.128,-0.068l0.127,-0.071l0.126,-0.072l0.125,-0.073l0.124,-0.075l0.123,-0.076l0.122,-0.077l0.121,-0.079l0.12,-0.081l0.118,-0.082l0.118,-0.083l0.116,-0.084l0.116,-0.086l0.114,-0.087l0.113,-0.089l0.111,-0.089l0.111,-0.092l0.109,-0.092l0.109,-0.093l0.107,-0.095l0.105,-0.096l0.105,-0.098l0.103,-0.098l0.102,-0.1l0.101,-0.101l0.1,-0.101l0.098,-0.104l0.097,-0.104l0.096,-0.105l0.095,-0.107l0.093,-0.107l0.092,-0.109l0.09,-0.11l0.089,-0.111l0.088,-0.111l0.087,-0.113l0.085,-0.114l0.084,-0.115l0.082,-0.116l0.081,-0.117l0.08,-0.117l0.078,-0.119l0.077,-0.12l0.075,-0.12l0.074,-0.122l0.073,-0.122l0.071,-0.123l0.069,-0.124l0.068,-0.125l0.067,-0.126l0.065,-0.127l0.064,-0.127l0.062,-0.128l0.061,-0.129l0.059,-0.13l0.057,-0.13l0.056,-0.132l0.055,-0.132l0.053,-0.132l0.051,-0.134l0.05,-0.134l0.048,-0.134l0.046,-0.136l0.045,-0.136l0.044,-0.136l0.041,-0.138l0.04,-0.138l0.039,-0.138l0.036,-0.139l0.036,-0.14l0.033,-0.14l0.032,-0.141l0.03,-0.141l0.028,-0.141l0.026,-0.143l0.025,-0.142l0.023,-0.143l0.022,-0.144l0.019,-0.144l0.018,-0.145l0.016,-0.144l0.015,-0.146l0.012,-0.145l0.011,-0.146l0.009,-0.147l0.007,-0.147l0.005,-0.147l0.004,-0.147l0.001,-0.148l0,-0.148l-0.002,-0.148l-0.004,-0.148l-0.006,-0.149l-0.007,-0.149l-0.01,-0.149l-0.012,-0.15l-0.013,-0.149l-0.016,-0.15l-0.017,-0.15l-0.019,-0.15l-0.021,-0.151l-0.024,-0.15l-0.025,-0.15l-0.027,-0.151l-0.029,-0.15l-0.031,-0.15l-0.033,-0.148l-0.034,-0.148l-0.037,-0.147l-0.038,-0.146l-0.039,-0.145l-0.042,-0.145l-0.043,-0.143l-0.045,-0.143l-0.047,-0.142l-0.048,-0.14l-0.05,-0.14l-0.051,-0.139l-0.054,-0.138l-0.055,-0.138l-0.056,-0.136l-0.058,-0.135l-0.06,-0.134l-0.061,-0.133l-0.063,-0.133l-0.064,-0.131l-0.066,-0.13l-0.067,-0.13l-0.069,-0.128l-0.071,-0.127l-0.071,-0.126l-0.074,-0.125l-0.075,-0.124l-0.076,-0.123l-0.077,-0.122l-0.079,-0.121l-0.081,-0.12l-0.081,-0.118l-0.084,-0.118l-0.084,-0.116l-0.086,-0.115l-0.087,-0.114l-0.089,-0.113l-0.089,-0.112l-0.091,-0.111l-0.093,-0.109l-0.093,-0.108l-0.095,-0.107l-0.096,-0.106l-0.097,-0.105l-0.099,-0.103l-0.1,-0.102l-0.1,-0.101l-0.102,-0.1l-0.103,-0.098l-0.105,-0.097l-0.105,-0.096l-0.107,-0.094l-0.107,-0.094l-0.109,-0.091l-0.11,-0.091l-0.11,-0.089l-0.112,-0.088l-0.113,-0.087l-0.114,-0.085l-0.115,-0.084l-0.116,-0.082l-0.116,-0.081l-0.118,-0.08l-0.119,-0.078l-0.12,-0.077l-0.12,-0.075l-0.122,-0.074l-0.122,-0.073l-0.123,-0.071l-0.124,-0.069l-0.125,-0.068l-0.126,-0.067l-0.127,-0.065l-0.127,-0.064l-0.128,-0.062l-0.129,-0.061l-0.13,-0.059l-0.13,-0.057l-0.132,-0.056l-0.132,-0.055l-0.132,-0.053l-0.134,-0.051l-0.134,-0.05l-0.134,-0.048l-0.136,-0.046l-0.136,-0.045l-0.136,-0.043l-0.138,-0.042l-0.137,-0.04l-0.139,-0.039l-0.139,-0.036l-0.14,-0.035l-0.14,-0.034l-0.14,-0.031l-0.142,-0.03l-0.141,-0.029l-0.142,-0.026l-0.143,-0.025l-0.143,-0.023l-0.144,-0.022l-0.144,-0.019l-0.144,-0.018l-0.145,-0.016l-0.146,-0.015l-0.145,-0.012l-0.146,-0.011l-0.147,-0.009l-0.146,-0.007l-0.147,-0.005l-0.148,-0.004l-0.148,-0.001l-0.147,0Z" style="fill:#eff0f0;"/><path d="M64.082,54.325c3.007,-0.562 5.904,1.423 6.466,4.429c0.562,3.006 -1.422,5.904 -4.428,6.466c-3.007,0.562 -5.904,-1.422 -6.466,-4.428c-0.563,-3.007 1.422,-5.904 4.428,-6.467Z" style="fill:#eff0f0;"/><path d="M65.258,50.829l0.11,0.002l0.114,0.004l0.11,0.005l0.114,0.007l0.109,0.009l0.106,0.009l0.114,0.011l0.11,0.012l0.106,0.013l0.114,0.016l0.109,0.016l0.105,0.017l0.106,0.019l0.11,0.02l0.109,0.022l0.104,0.022l0.109,0.024l0.105,0.025l0.103,0.026l0.11,0.029l0.104,0.029l0.102,0.03l0.105,0.032l0.103,0.033l0.103,0.034l0.099,0.034l0.102,0.036l0.104,0.038l0.101,0.039l0.1,0.04l0.1,0.041l0.098,0.043l0.096,0.042l0.098,0.044l0.101,0.048l0.097,0.047l0.093,0.046l0.096,0.05l0.095,0.05l0.092,0.05l0.092,0.052l0.096,0.055l0.095,0.057l0.087,0.052l0.091,0.057l0.094,0.061l0.085,0.056l0.09,0.06l0.091,0.064l0.086,0.061l0.083,0.061l0.088,0.065l0.084,0.065l0.083,0.064l0.087,0.07l0.084,0.07l0.08,0.068l0.079,0.068l0.08,0.071l0.08,0.073l0.08,0.075l0.078,0.073l0.076,0.075l0.077,0.077l0.076,0.078l0.074,0.077l0.069,0.075l0.072,0.079l0.076,0.085l0.073,0.085l0.067,0.08l0.066,0.08l0.07,0.087l0.068,0.087l0.064,0.084l0.064,0.086l0.065,0.089l0.065,0.091l0.06,0.088l0.061,0.091l0.061,0.092l0.059,0.093l0.055,0.09l0.058,0.095l0.055,0.095l0.056,0.097l0.052,0.095l0.052,0.097l0.051,0.099l0.05,0.096l0.05,0.103l0.047,0.1l0.046,0.1l0.044,0.1l0.046,0.105l0.041,0.1l0.041,0.102l0.042,0.108l0.04,0.108l0.036,0.101l0.035,0.103l0.038,0.115l0.034,0.11l0.031,0.103l0.03,0.103l0.031,0.11l0.03,0.117l0.027,0.111l0.026,0.112l0.023,0.104l0.024,0.112l0.022,0.118l0.021,0.115l0.019,0.115l0.017,0.109l0.015,0.109l0.015,0.115l0.014,0.116l0.011,0.11l0.011,0.116l0.008,0.109l0.007,0.11l0.006,0.117l0.005,0.116l0.003,0.11l0.001,0.111l0,0.116l-0.001,0.104l-0.002,0.11l-0.004,0.117l-0.006,0.11l-0.006,0.11l-0.009,0.117l-0.01,0.11l-0.01,0.103l-0.012,0.109l-0.013,0.11l-0.015,0.11l-0.017,0.109l-0.017,0.109l-0.019,0.11l-0.021,0.109l-0.022,0.108l-0.021,0.102l-0.025,0.109l-0.026,0.108l-0.025,0.102l-0.028,0.107l-0.028,0.101l-0.03,0.101l-0.034,0.112l-0.032,0.1l-0.033,0.101l-0.036,0.105l-0.036,0.1l-0.039,0.106l-0.038,0.098l-0.038,0.097l-0.041,0.098l-0.044,0.105l-0.044,0.097l-0.043,0.097l-0.048,0.102l-0.044,0.089l-0.048,0.097l-0.049,0.094l-0.049,0.094l-0.055,0.1l-0.053,0.094l-0.051,0.088l-0.054,0.093l-0.057,0.092l-0.058,0.093l-0.058,0.091l-0.055,0.084l-0.061,0.091l-0.063,0.09l-0.062,0.087l-0.062,0.085l-0.062,0.083l-0.069,0.09l-0.064,0.082l-0.067,0.083l-0.07,0.084l-0.067,0.08l-0.072,0.082l-0.074,0.084l-0.068,0.075l-0.071,0.076l-0.079,0.083l-0.075,0.077l-0.074,0.073l-0.078,0.076l-0.077,0.074l-0.08,0.074l-0.079,0.072l-0.08,0.071l-0.084,0.073l-0.08,0.067l-0.084,0.07l-0.087,0.069l-0.083,0.065l-0.086,0.066l-0.088,0.066l-0.085,0.062l-0.089,0.063l-0.093,0.063l-0.09,0.061l-0.092,0.06l-0.094,0.06l-0.092,0.057l-0.09,0.054l-0.097,0.057l-0.097,0.055l-0.095,0.053l-0.098,0.053l-0.097,0.05l-0.099,0.05l-0.1,0.049l-0.098,0.047l-0.104,0.047l-0.102,0.046l-0.1,0.042l-0.103,0.043l-0.103,0.042l-0.107,0.041l-0.104,0.038l-0.105,0.038l-0.109,0.037l-0.105,0.035l-0.107,0.033l-0.109,0.034l-0.111,0.031l-0.105,0.029l-0.111,0.029l-0.112,0.028l-0.112,0.026l-0.113,0.025l-0.111,0.022l-0.112,0.022l-0.113,0.021l-0.11,0.018l-0.115,0.018l-0.116,0.016l-0.11,0.014l-0.112,0.013l-0.112,0.012l-0.114,0.01l-0.116,0.009l-0.113,0.007l-0.11,0.006l-0.11,0.004l-0.113,0.004l-0.114,0.001l-0.113,0l-0.114,-0.001l-0.106,-0.003l-0.11,-0.003l-0.117,-0.006l-0.11,-0.007l-0.107,-0.008l-0.114,-0.009l-0.11,-0.011l-0.106,-0.012l-0.113,-0.014l-0.109,-0.015l-0.107,-0.016l-0.109,-0.018l-0.105,-0.018l-0.11,-0.02l-0.108,-0.022l-0.106,-0.022l-0.108,-0.025l-0.105,-0.025l-0.105,-0.026l-0.108,-0.029l-0.104,-0.029l-0.102,-0.029l-0.106,-0.032l-0.102,-0.033l-0.101,-0.033l-0.102,-0.035l-0.104,-0.037l-0.101,-0.038l-0.101,-0.039l-0.1,-0.04l-0.1,-0.041l-0.096,-0.041l-0.099,-0.043l-0.101,-0.046l-0.094,-0.045l-0.097,-0.047l-0.1,-0.049l-0.092,-0.048l-0.096,-0.051l-0.094,-0.051l-0.089,-0.05l-0.096,-0.055l-0.096,-0.057l-0.086,-0.053l-0.092,-0.057l-0.093,-0.06l-0.088,-0.058l-0.087,-0.059l-0.086,-0.059l-0.088,-0.063l-0.09,-0.066l-0.088,-0.065l-0.08,-0.062l-0.083,-0.065l-0.087,-0.07l-0.081,-0.066l-0.083,-0.071l-0.083,-0.072l-0.076,-0.067l-0.081,-0.074l-0.08,-0.074l-0.077,-0.074l-0.076,-0.074l-0.077,-0.077l-0.073,-0.075l-0.074,-0.077l-0.076,-0.082l-0.073,-0.081l-0.071,-0.08l-0.068,-0.079l-0.073,-0.085l-0.068,-0.084l-0.067,-0.083l-0.068,-0.087l-0.065,-0.085l-0.063,-0.085l-0.065,-0.089l-0.065,-0.091l-0.06,-0.088l-0.062,-0.091l-0.06,-0.093l-0.056,-0.088l-0.059,-0.095l-0.057,-0.094l-0.055,-0.095l-0.056,-0.097l-0.053,-0.097l-0.051,-0.095l-0.051,-0.098l-0.053,-0.103l-0.047,-0.098l-0.045,-0.093l-0.048,-0.106l-0.047,-0.106l-0.041,-0.095l-0.044,-0.105l-0.042,-0.106l-0.04,-0.104l-0.038,-0.101l-0.038,-0.107l-0.037,-0.11l-0.034,-0.103l-0.035,-0.109l-0.033,-0.11l-0.031,-0.109l-0.03,-0.11l-0.029,-0.112l-0.028,-0.11l-0.024,-0.104l-0.025,-0.112l-0.024,-0.118l-0.021,-0.11l-0.021,-0.116l-0.019,-0.115l-0.017,-0.109l-0.016,-0.109l-0.015,-0.116l-0.013,-0.116l-0.011,-0.109l-0.011,-0.116l-0.008,-0.11l-0.007,-0.11l-0.006,-0.116l-0.005,-0.117l-0.003,-0.11l-0.001,-0.11l0,-0.11l0,-0.11l0.003,-0.117l0.004,-0.11l0.006,-0.11l0.006,-0.11l0.008,-0.11l0.01,-0.117l0.011,-0.11l0.012,-0.103l0.013,-0.11l0.015,-0.109l0.016,-0.11l0.018,-0.109l0.019,-0.109l0.021,-0.109l0.021,-0.109l0.022,-0.101l0.023,-0.103l0.027,-0.115l0.028,-0.108l0.024,-0.093l0.03,-0.108l0.031,-0.107l0.03,-0.1l0.034,-0.108l0.036,-0.106l0.034,-0.099l0.035,-0.1l0.04,-0.105l0.037,-0.098l0.039,-0.097l0.041,-0.099l0.042,-0.099l0.045,-0.103l0.044,-0.096l0.045,-0.096l0.049,-0.102l0.048,-0.094l0.046,-0.091l0.051,-0.095l0.054,-0.099l0.053,-0.094l0.05,-0.088l0.055,-0.093l0.056,-0.092l0.057,-0.091l0.06,-0.093l0.056,-0.085l0.06,-0.089l0.063,-0.09l0.059,-0.083l0.064,-0.089l0.066,-0.088l0.066,-0.085l0.064,-0.082l0.067,-0.083l0.07,-0.084l0.067,-0.08l0.072,-0.083l0.07,-0.08l0.072,-0.078l0.073,-0.079l0.074,-0.077l0.079,-0.082l0.074,-0.073l0.073,-0.072l0.082,-0.078l0.082,-0.076l0.074,-0.067l0.082,-0.072l0.082,-0.072l0.082,-0.069l0.088,-0.072l0.079,-0.064l0.086,-0.067l0.087,-0.067l0.088,-0.065l0.088,-0.064l0.086,-0.061l0.092,-0.064l0.091,-0.061l0.091,-0.059l0.095,-0.06l0.09,-0.056l0.092,-0.056l0.099,-0.058l0.095,-0.054l0.095,-0.052l0.095,-0.051l0.099,-0.052l0.103,-0.052l0.097,-0.047l0.098,-0.047l0.104,-0.048l0.099,-0.044l0.102,-0.044l0.107,-0.044l0.1,-0.04l0.106,-0.041l0.105,-0.039l0.105,-0.037l0.105,-0.037l0.107,-0.035l0.111,-0.035l0.107,-0.032l0.11,-0.031l0.108,-0.03l0.109,-0.028l0.112,-0.028l0.11,-0.026l0.115,-0.025l0.109,-0.022l0.112,-0.022l0.117,-0.021l0.109,-0.018l0.115,-0.018l0.112,-0.016l0.112,-0.015l0.116,-0.013l0.11,-0.011l0.113,-0.011l0.116,-0.009l0.113,-0.007l0.11,-0.005l0.11,-0.005l0.113,-0.003l0.113,-0.002l0.114,0l0.11,0.002Zm-0.196,3.401l-0.07,0.001l-0.069,0.002l-0.07,0.003l-0.069,0.004l-0.07,0.004l-0.07,0.006l-0.07,0.006l-0.07,0.007l-0.07,0.008l-0.07,0.009l-0.071,0.01l-0.07,0.011l-0.07,0.012l-0.071,0.012l-0.07,0.014l-0.07,0.015l-0.07,0.015l-0.069,0.016l-0.068,0.017l-0.069,0.018l-0.068,0.018l-0.067,0.02l-0.067,0.02l-0.067,0.021l-0.066,0.022l-0.066,0.022l-0.066,0.024l-0.065,0.024l-0.064,0.025l-0.064,0.025l-0.064,0.027l-0.063,0.027l-0.063,0.028l-0.063,0.029l-0.061,0.029l-0.062,0.03l-0.061,0.031l-0.06,0.031l-0.06,0.033l-0.06,0.032l-0.059,0.034l-0.058,0.034l-0.058,0.035l-0.058,0.036l-0.057,0.036l-0.056,0.037l-0.056,0.038l-0.056,0.038l-0.055,0.039l-0.054,0.04l-0.054,0.04l-0.053,0.04l-0.053,0.042l-0.053,0.042l-0.051,0.042l-0.051,0.044l-0.051,0.043l-0.05,0.045l-0.05,0.045l-0.048,0.045l-0.049,0.046l-0.048,0.047l-0.047,0.047l-0.046,0.048l-0.046,0.048l-0.046,0.049l-0.045,0.049l-0.044,0.05l-0.043,0.05l-0.043,0.051l-0.043,0.051l-0.041,0.052l-0.042,0.052l-0.04,0.053l-0.04,0.053l-0.039,0.054l-0.039,0.054l-0.037,0.055l-0.038,0.055l-0.036,0.056l-0.036,0.056l-0.035,0.056l-0.035,0.057l-0.034,0.057l-0.033,0.058l-0.033,0.058l-0.032,0.058l-0.031,0.059l-0.03,0.059l-0.03,0.06l-0.029,0.06l-0.028,0.06l-0.028,0.061l-0.027,0.061l-0.026,0.061l-0.026,0.062l-0.024,0.062l-0.024,0.062l-0.024,0.063l-0.022,0.063l-0.022,0.063l-0.021,0.064l-0.02,0.064l-0.02,0.064l-0.019,0.065l-0.017,0.064l-0.018,0.065l-0.016,0.066l-0.016,0.065l-0.015,0.066l-0.014,0.066l-0.013,0.066l-0.012,0.067l-0.012,0.067l-0.011,0.067l-0.01,0.067l-0.009,0.067l-0.008,0.068l-0.008,0.067l-0.006,0.068l-0.006,0.068l-0.005,0.069l-0.005,0.068l-0.003,0.069l-0.002,0.069l-0.002,0.069l-0.001,0.069l0,0.069l0.001,0.069l0.002,0.07l0.003,0.069l0.004,0.07l0.004,0.07l0.006,0.07l0.006,0.07l0.007,0.07l0.008,0.07l0.009,0.07l0.01,0.07l0.011,0.071l0.012,0.07l0.013,0.071l0.013,0.07l0.015,0.07l0.015,0.069l0.016,0.069l0.017,0.069l0.018,0.068l0.018,0.068l0.02,0.068l0.02,0.067l0.021,0.067l0.022,0.066l0.022,0.066l0.024,0.065l0.024,0.065l0.025,0.065l0.025,0.064l0.027,0.064l0.027,0.063l0.028,0.063l0.029,0.062l0.029,0.062l0.03,0.061l0.031,0.061l0.031,0.061l0.033,0.06l0.033,0.059l0.033,0.059l0.034,0.059l0.035,0.058l0.036,0.057l0.036,0.057l0.037,0.057l0.038,0.056l0.038,0.055l0.039,0.055l0.04,0.055l0.04,0.054l0.04,0.053l0.042,0.053l0.042,0.052l0.042,0.052l0.044,0.051l0.043,0.051l0.045,0.05l0.045,0.049l0.045,0.049l0.046,0.049l0.047,0.047l0.047,0.047l0.048,0.047l0.048,0.046l0.049,0.045l0.049,0.045l0.05,0.044l0.05,0.044l0.051,0.043l0.051,0.042l0.052,0.042l0.052,0.041l0.053,0.041l0.053,0.04l0.054,0.039l0.054,0.038l0.055,0.038l0.055,0.037l0.056,0.037l0.056,0.036l0.056,0.035l0.057,0.035l0.057,0.034l0.058,0.033l0.058,0.032l0.058,0.032l0.059,0.032l0.059,0.03l0.06,0.03l0.06,0.029l0.06,0.028l0.061,0.028l0.061,0.027l0.061,0.026l0.062,0.025l0.062,0.025l0.062,0.024l0.063,0.023l0.063,0.023l0.063,0.022l0.064,0.021l0.064,0.02l0.064,0.019l0.065,0.019l0.064,0.018l0.065,0.017l0.066,0.017l0.065,0.015l0.066,0.015l0.066,0.014l0.066,0.013l0.067,0.013l0.067,0.012l0.067,0.01l0.067,0.01l0.067,0.01l0.068,0.008l0.067,0.007l0.068,0.007l0.069,0.006l0.068,0.005l0.068,0.004l0.069,0.004l0.069,0.002l0.069,0.002l0.069,0l0.069,0l0.069,-0.001l0.07,-0.002l0.069,-0.002l0.07,-0.004l0.07,-0.004l0.07,-0.006l0.07,-0.006l0.07,-0.007l0.07,-0.009l0.07,-0.009l0.07,-0.009l0.071,-0.011l0.07,-0.012l0.071,-0.013l0.07,-0.013l0.07,-0.015l0.069,-0.015l0.069,-0.016l0.069,-0.017l0.069,-0.018l0.067,-0.019l0.068,-0.019l0.067,-0.02l0.067,-0.021l0.066,-0.022l0.066,-0.023l0.065,-0.023l0.065,-0.024l0.065,-0.025l0.064,-0.026l0.064,-0.026l0.063,-0.027l0.063,-0.028l0.062,-0.029l0.062,-0.029l0.062,-0.03l0.06,-0.031l0.061,-0.032l0.06,-0.032l0.059,-0.033l0.059,-0.033l0.059,-0.035l0.058,-0.035l0.058,-0.035l0.057,-0.037l0.056,-0.037l0.056,-0.037l0.056,-0.038l0.054,-0.039l0.055,-0.04l0.054,-0.04l0.053,-0.041l0.053,-0.041l0.052,-0.042l0.052,-0.043l0.051,-0.043l0.051,-0.044l0.05,-0.044l0.049,-0.045l0.049,-0.045l0.049,-0.047l0.047,-0.046l0.048,-0.047l0.046,-0.048l0.046,-0.048l0.046,-0.049l0.044,-0.049l0.045,-0.05l0.043,-0.05l0.043,-0.051l0.042,-0.052l0.042,-0.051l0.041,-0.053l0.041,-0.053l0.04,-0.053l0.039,-0.054l0.038,-0.054l0.038,-0.054l0.037,-0.055l0.037,-0.056l0.036,-0.056l0.035,-0.056l0.035,-0.057l0.034,-0.057l0.033,-0.058l0.033,-0.058l0.031,-0.058l0.032,-0.059l0.03,-0.06l0.03,-0.059l0.029,-0.06l0.028,-0.06l0.028,-0.061l0.027,-0.061l0.026,-0.061l0.025,-0.062l0.025,-0.062l0.024,-0.063l0.023,-0.062l0.023,-0.063l0.022,-0.064l0.021,-0.063l0.02,-0.064l0.02,-0.064l0.018,-0.065l0.018,-0.065l0.017,-0.065l0.017,-0.065l0.015,-0.066l0.015,-0.065l0.014,-0.066l0.014,-0.067l0.012,-0.066l0.012,-0.067l0.01,-0.067l0.01,-0.067l0.01,-0.067l0.008,-0.068l0.007,-0.068l0.007,-0.068l0.006,-0.068l0.005,-0.068l0.004,-0.069l0.004,-0.068l0.002,-0.069l0.002,-0.069l0,-0.069l0,-0.069l-0.001,-0.07l-0.002,-0.069l-0.002,-0.07l-0.004,-0.069l-0.004,-0.07l-0.006,-0.07l-0.006,-0.07l-0.007,-0.07l-0.008,-0.07l-0.009,-0.071l-0.01,-0.07l-0.011,-0.07l-0.012,-0.071l-0.013,-0.07l-0.013,-0.07l-0.015,-0.07l-0.015,-0.07l-0.016,-0.069l-0.017,-0.069l-0.018,-0.068l-0.019,-0.068l-0.019,-0.067l-0.02,-0.067l-0.021,-0.067l-0.022,-0.066l-0.023,-0.066l-0.023,-0.066l-0.024,-0.065l-0.025,-0.064l-0.026,-0.065l-0.026,-0.063l-0.027,-0.063l-0.028,-0.063l-0.029,-0.063l-0.029,-0.061l-0.03,-0.062l-0.031,-0.061l-0.032,-0.06l-0.032,-0.06l-0.033,-0.06l-0.033,-0.059l-0.035,-0.058l-0.035,-0.058l-0.035,-0.058l-0.037,-0.057l-0.037,-0.056l-0.037,-0.056l-0.038,-0.056l-0.039,-0.055l-0.04,-0.054l-0.04,-0.054l-0.041,-0.053l-0.041,-0.053l-0.042,-0.053l-0.043,-0.051l-0.043,-0.051l-0.044,-0.051l-0.044,-0.05l-0.045,-0.05l-0.045,-0.049l-0.046,-0.048l-0.047,-0.048l-0.047,-0.047l-0.048,-0.046l-0.048,-0.046l-0.049,-0.046l-0.049,-0.045l-0.05,-0.044l-0.05,-0.043l-0.051,-0.043l-0.052,-0.043l-0.051,-0.041l-0.053,-0.042l-0.052,-0.04l-0.054,-0.04l-0.053,-0.039l-0.055,-0.039l-0.054,-0.038l-0.055,-0.037l-0.056,-0.036l-0.056,-0.036l-0.056,-0.036l-0.057,-0.034l-0.057,-0.034l-0.058,-0.033l-0.058,-0.033l-0.058,-0.032l-0.059,-0.031l-0.059,-0.03l-0.06,-0.03l-0.06,-0.029l-0.06,-0.029l-0.061,-0.027l-0.061,-0.027l-0.061,-0.026l-0.062,-0.026l-0.062,-0.025l-0.063,-0.024l-0.062,-0.023l-0.063,-0.022l-0.064,-0.022l-0.063,-0.021l-0.064,-0.02l-0.064,-0.02l-0.065,-0.019l-0.065,-0.018l-0.065,-0.017l-0.065,-0.016l-0.065,-0.016l-0.066,-0.015l-0.066,-0.014l-0.067,-0.013l-0.066,-0.012l-0.067,-0.012l-0.067,-0.011l-0.067,-0.01l-0.067,-0.009l-0.068,-0.008l-0.068,-0.008l-0.068,-0.007l-0.068,-0.005l-0.068,-0.005l-0.069,-0.005l-0.068,-0.003l-0.069,-0.002l-0.069,-0.002l-0.069,-0.001l-0.069,0Z" style="fill:#eff0f0;"/></g><g><path d="M73.98,92.009c4.527,-0.846 8.889,2.141 9.736,6.668c0.847,4.527 -2.141,8.889 -6.668,9.736c-4.526,0.846 -8.889,-2.142 -9.735,-6.668c-0.847,-4.527 2.141,-8.889 6.667,-9.736Z" style="fill:#c5c5c5;"/><path d="M32.3,56.05c3.343,-0.625 6.564,1.581 7.189,4.924c0.625,3.342 -1.581,6.564 -4.924,7.189c-3.342,0.625 -6.563,-1.581 -7.189,-4.924c-0.625,-3.343 1.581,-6.564 4.924,-7.189Z" style="fill:#c5c5c5;"/><path d="M55.643,17.592c2.68,-0.501 5.263,1.268 5.764,3.948c0.502,2.68 -1.268,5.264 -3.948,5.765c-2.68,0.501 -5.263,-1.268 -5.764,-3.948c-0.502,-2.681 1.267,-5.264 3.948,-5.765Z" style="fill:#c5c5c5;"/><path d="M91.277,47.481c6.427,-1.202 12.621,3.04 13.824,9.468c1.202,6.427 -3.041,12.622 -9.468,13.824c-6.428,1.202 -12.622,-3.04 -13.824,-9.468c-1.202,-6.427 3.04,-12.622 9.468,-13.824Z" style="fill:#c5c5c5;"/><path d="M64.082,54.325c3.007,-0.562 5.904,1.423 6.466,4.429c0.562,3.006 -1.422,5.904 -4.428,6.466c-3.007,0.562 -5.904,-1.422 -6.466,-4.428c-0.563,-3.007 1.422,-5.904 4.428,-6.467Z" style="fill:#c5c5c5;"/></g></g></g></g></svg>